<svg version="1.1" xmlns="http://www.w3.org/2000/svg" width="32" height="32" viewBox="0 0 32 32">
<path d="M9.8 20l-4-18h-5.8v2h4.2l4 18.067h23.8v-2.067z"></path>
<path d="M26 24c-1.667 0-3 1.333-3 3s1.333 3 3 3 3-1.333 3-3-1.333-3-3-3zM26 28c-0.533 0-1-0.4-1-1s0.467-1 1-1 1 0.4 1 1-0.4 1-1 1z"></path>
<path d="M11 24c-1.667 0-3 1.333-3 3s1.333 3 3 3 3-1.333 3-3-1.333-3-3-3zM11 28c-0.533 0-1-0.4-1-1s0.4-1 1-1c0.533 0 1 0.4 1 1s-0.467 1-1 1z"></path>
<path d="M14.667 16.667l5.8-5.8 5.8 5.8 1.4-1.4-5.8-5.8 5.8-5.8-1.4-1.4-5.8 5.8-5.8-5.733-1.333 1.333 5.8 5.8-5.867 5.867z"></path>
</svg>