<!-- Generated by IcoMoon.io -->
<svg version="1.1" xmlns="http://www.w3.org/2000/svg" width="38" height="32" viewBox="0 0 38 32">
<title>contact</title>
<path fill="#000" d="M37.098 10.956c-3.905-7.105-10.739-11.715-22.4-10.847-11.661 0.814-16.217 10.034-14.264 17.519 2.007 7.539 10.63 9.275 10.63 9.275 6.671 1.139 9.871 0.868 9.871 0.868l1.844 4.285 1.356-5.098c6.237-2.061 16.922-8.895 12.963-16z"></path>
<path fill="#fff" d="M20.339 6.78c-0.976 0-2.224 0-2.224 0.542 0 0-0.108 4.719 0 5.749 0 0 0 0 0 0.054-1.030 0-2.712 0-4.014 0 0-0.976-0.054-1.681 0-2.007 0.054-1.302 0.325-4.339-0.054-4.447-0.38-0.054-3.037-0.38-3.092 0 0 0-0.163 6.237 0 9.22 0.163 3.037-0.217 6.075 0.271 6.183 0.488 0.163 2.495 0.163 2.82 0 0.217-0.108 0.163-3.688 0.108-6.78 1.302 0 2.929 0 4.014-0.054 0 1.085 0 2.224-0.163 2.766-0.217 1.030 0 3.525 0 3.525s0 0.38 0.759 0.38 1.79 0 1.79 0 0.542 0.325 0.434-0.976c-0.108-1.302-0.163-6.942 0-8.298 0.217-1.41 0.271-5.315 0.271-5.315s0.054-0.542-0.922-0.542zM26.902 12.149c-0.217-0.814 0.434-1.464-0.651-1.464s-1.085 0-1.085 0-0.597 0.054-0.651 0.542c-0.054 0.488-0.163 2.929 0 5.153s-0.054 4.881-0.054 4.881-0.271 0.434 0.325 0.434c0.651 0.054 2.061 0.38 2.115-0.488 0.054-0.814 0.217-8.244 0-9.058zM26.631 9.275c0.814-0.651 0.325-1.844-0.38-1.953-0.759-0.163-1.139 0-1.139 0s-0.814 0.759-0.38 1.464 1.085 1.139 1.898 0.488z"></path>
</svg>
