<svg enable-background="new 0 0 48 39.5" viewBox="0 0 48 39.5" xmlns="http://www.w3.org/2000/svg"><path d="m2.3 10.3h5.1c1 3.3 4 5.7 7.6 5.7s6.6-2.4 7.6-5.7h23.1c1.3 0 2.3-1 2.3-2.3s-1-2.3-2.3-2.3h-23.1c-1-3.3-4-5.7-7.6-5.7s-6.7 2.4-7.7 5.7h-5c-1.3 0-2.3 1-2.3 2.3s1 2.3 2.3 2.3zm12.7-5.7c1.9 0 3.4 1.5 3.4 3.4s-1.5 3.4-3.4 3.4-3.5-1.4-3.5-3.4 1.6-3.4 3.5-3.4z"/><path d="m45.7 29.3h-5.1c-1-3.3-4-5.7-7.6-5.7s-6.6 2.4-7.6 5.7h-23.1c-1.3 0-2.3 1-2.3 2.3s1 2.3 2.3 2.3h23.1c1 3.3 4 5.7 7.6 5.7s6.6-2.4 7.6-5.7h5.1c1.3 0 2.3-1 2.3-2.3s-1-2.3-2.3-2.3zm-12.7 5.6c-1.9 0-3.4-1.5-3.4-3.4s1.5-3.4 3.4-3.4 3.4 1.5 3.4 3.4-1.5 3.4-3.4 3.4z"/></svg>