<!-- Generated by IcoMoon.io -->
<svg version="1.1" xmlns="http://www.w3.org/2000/svg" width="57" height="32" viewBox="0 0 57 32">
<title>free_ship</title>
<path d="M55.877 16h-10.4c-0.431 0-0.8-0.369-0.738-0.8v0c0.062-0.431 0.431-0.8 0.923-0.8h4.738l-0.369-1.908h3.877c0.431 0 0.862-0.369 0.923-0.8s-0.308-0.8-0.738-0.8h-9.415c-0.431 0-0.8-0.369-0.738-0.8s0.431-0.8 0.923-0.8h4.677l-0.246-1.415h1.908c0.431 0 0.862-0.369 0.923-0.8s-0.308-0.8-0.738-0.8h-8.862c-0.431 0-0.8-0.369-0.738-0.8s0.431-0.8 0.923-0.8h6.092c-0.185-1.662-1.477-2.954-2.954-2.954h-7.262c-1.538 0-2.708 1.415-2.585 3.2l0.308 4.862-7.508 0.123c-0.554-0.062-1.046 0.185-1.415 0.677l-1.969 2.646c-0.431 0.554-0.185 1.354 0.369 1.662h12.677c0.308 0 0.554 0.246 0.554 0.554s-0.246 0.554-0.554 0.554h-11.692c-0.123 0.615 0.062 1.231 0.431 1.723 0.246 0.308 0.492 0.615 0.677 0.923 0.308 0.431 0.308 0.985 0 1.415l-0.738 1.046c-0.246 0.369-0.677 0.615-1.169 0.615l-6.769 0.062c-0.308 0-0.554-0.062-0.738-0.185l0.123 0.738c0.123 0.615 0.677 1.108 1.292 1.108h6.4v0.738h-6.4c-0.985 0-1.846-0.738-2.031-1.662 0 0-0.8-7.2-0.677-7.877l0.8-6.769c0.062-0.492 0.246-0.923 0.554-1.292l2.154-2.523 1.477 1.908 0.985-0.8-1.908-2.338-0.554-1.723c-0.185-0.615-0.738-0.985-1.415-0.985h-1.785c-0.615 0-1.169 0.308-1.477 0.8l-1.477 2.154c-0.369 0.615 0.062 1.477 0.8 1.477h0.615l-1.169 1.169c-0.369 0.369-0.677 0.8-0.985 1.292l-3.323 5.477h-2.646c-0.369-0.862-1.292-1.415-2.277-1.354h-0.185l-0.615 4.615-0.431 0.185c-1.231 0.431-2.277 1.354-2.892 2.523l-0.431 0.862 1.908 0.308c-1.723 1.169-2.892 3.138-2.892 5.354-0.062 3.631 2.892 6.585 6.585 6.585s6.708-2.954 6.769-6.585c0-1.538-0.492-2.892-1.354-4.062 0.615 0.123 1.169 0.492 1.415 1.046l2.092 4.862c0.492 1.108 1.538 1.785 2.769 1.785h10.954c0.8 0 1.538-0.369 2.092-0.923l0.985-1.108c0.923 0.985 2.215 1.538 3.569 1.538h1.846l0.062-0.8c0.8 2.646 3.323 4.554 6.277 4.554 3.692 0 6.708-2.954 6.769-6.585 0-1.538-0.492-2.954-1.415-4.123-0.431-0.554-0.738-1.231-0.738-1.969v-0.123c0.308 0.246 0.615 0.554 0.862 0.862l1.108 1.785c0.369 0.554 1.292 0.185 1.169-0.492l-0.738-3.815h4.8c0.431 0 0.862-0.369 0.923-0.8-0.123-0.246-0.492-0.615-0.923-0.615zM6.585 26.708c-0.985 0-1.785-0.8-1.785-1.846 0-0.985 0.8-1.846 1.785-1.846s1.785 0.8 1.785 1.846c0.062 1.046-0.8 1.846-1.785 1.846zM44.677 12.369h0.677c0.369 0 0.677 0.308 0.677 0.677s-0.308 0.677-0.677 0.677h-0.677c-0.369 0-0.677-0.308-0.677-0.677s0.308-0.677 0.677-0.677zM41.169 7.446h0.677c0.369 0 0.677 0.308 0.677 0.677s-0.308 0.677-0.677 0.677h-0.677c-0.369 0-0.677-0.308-0.677-0.677s0.308-0.677 0.677-0.677zM40.985 12.369h-0.677c-0.369 0-0.677-0.308-0.677-0.677s0.308-0.677 0.677-0.677h0.677c0.369 0 0.677 0.308 0.677 0.677 0.062 0.369-0.246 0.677-0.677 0.677zM41.785 17.415c0-0.369 0.308-0.677 0.677-0.677h0.677c0.369 0 0.677 0.308 0.677 0.677s-0.308 0.677-0.677 0.677h-0.677c-0.369 0-0.677-0.308-0.677-0.677zM44 26.708c-0.985 0-1.785-0.8-1.785-1.846 0-0.985 0.8-1.846 1.785-1.846s1.785 0.8 1.785 1.846c0 1.046-0.8 1.846-1.785 1.846z"></path>
</svg>
