<svg xmlns="http://www.w3.org/2000/svg" width="9.47" height="8.03" viewBox="0 0 9.47 8.03">
  <defs>
    <style>
      .cls-1 {
        fill: #e885a3;
        fill-rule: evenodd;
      }
    </style>
  </defs>
  <path id="_" data-name="“" class="cls-1" d="M1232.77,1858.29a1.8,1.8,0,0,0,1.35-.5,1.824,1.824,0,0,0,.48-1.33,1.848,1.848,0,0,0-.48-1.34,1.791,1.791,0,0,0-1.35-.49l-0.45.09a3.411,3.411,0,0,1,.73-2.15,7.309,7.309,0,0,1,1.73-1.6l-0.54-.72a8.184,8.184,0,0,0-2.65,2.58,5.941,5.941,0,0,0-.8,3.12,2.642,2.642,0,0,0,.52,1.65,1.735,1.735,0,0,0,1.46.69h0Zm5.46,0a1.8,1.8,0,0,0,1.35-.5,1.824,1.824,0,0,0,.48-1.33,1.848,1.848,0,0,0-.48-1.34,1.791,1.791,0,0,0-1.35-.49l-0.45.09a3.411,3.411,0,0,1,.73-2.15,7.309,7.309,0,0,1,1.73-1.6l-0.54-.72a8.331,8.331,0,0,0-2.66,2.58,6.03,6.03,0,0,0-.79,3.12,2.642,2.642,0,0,0,.52,1.65,1.735,1.735,0,0,0,1.46.69h0Z" transform="translate(-1230.78 -1850.25)"/>
</svg>
