<svg xmlns="http://www.w3.org/2000/svg" width="187.089" height="36.029" viewBox="0 0 187.089 36.029"><g id="Grupo_2953" data-name="Grupo 2953" transform="translate(-664.834 -1099.364)" opacity="0.405"><path id="Caminho_1329" data-name="Caminho 1329" d="M12.872,94.166h3.013a1.059,1.059,0,0,1,1.141,1.018A1.484,1.484,0,0,1,15.4,96.635H12.177l.695-2.469Zm14.821.015H30.54c1.349,0,1.4.918,1.4,1.179a1.978,1.978,0,0,1-2.175,1.81h-2.9s.81-2.915.825-2.989ZM11.448,99.2h2.6c1.275,0,1.348.346,1.524.643a1.494,1.494,0,0,1-.027,1.131c-.151.271-.409,1.105-2.041,1.105H10.614l.834-2.879Z" transform="translate(662 1021)" fill="#fff" fill-rule="evenodd"></path><path id="Caminho_1330" data-name="Caminho 1330" d="M38.977,91.5v22.9H2.834V91.5H9.79L5.936,104.825h7.888c3.417,0,4.012-.8,4.706-1.379a4.075,4.075,0,0,0,1.007-3.912,2.832,2.832,0,0,0-1.249-1.486,4.229,4.229,0,0,0,1.765-1.742,3.3,3.3,0,0,0-.282-3.516A4.833,4.833,0,0,0,16.207,91.5h8.444l-3.866,13.356H24.7l1.43-5.064h2.235c1.625,0,1.477,1.012,1.517,1.447l.127,3.725,3.634,0s-.163-4.18-.177-4.486A1.458,1.458,0,0,0,32.1,98.916a4.886,4.886,0,0,0,2.58-2.049,3.853,3.853,0,0,0,.355-3.258,3.546,3.546,0,0,0-3.6-2.111h7.542Z" transform="translate(662 1021)" fill="#fff" fill-rule="evenodd"></path><path id="Caminho_1331" data-name="Caminho 1331" d="M2.834,87.119H38.977V78.364H2.834Z" transform="translate(662 1021)" fill="#fff" fill-rule="evenodd"></path><path id="Caminho_1332" data-name="Caminho 1332" d="M96.628,93.376l.487-1.773H84.728l-1,3.546h3.983l-2.841,9.982h4.419l2.842-9.982h3.984l.509-1.773ZM62.408,91.6H55.9l-3.861,13.528h4.444l1.19-4.225h2.234a7.1,7.1,0,0,0,.729-.025c3.448-.219,5.464-1.992,6.242-4.711.776-2.794-.584-4.567-4.47-4.567Zm.243,4.567a2.048,2.048,0,0,1-2.016,1.578H58.57l.85-2.987h1.264c.946,0,2.307.17,1.967,1.409Zm4.42,8.961H78.365l.9-3.156H72.39L73,99.838h5.586l.9-3.158H73.9l.559-1.919h6.581l.9-3.158H70.909l-3.838,13.528Zm92.241-9.423a1.153,1.153,0,0,0,.1-.267,2.983,2.983,0,0,0-.1-2.454c-.582-.947-2.064-1.384-4.809-1.384h-6.386l-3.838,13.528h4.42l1.361-4.736H151.4a2.833,2.833,0,0,1,1.627.316c.461.34.389.973.072,2.041-.025.1-.049.17-.072.266a7.861,7.861,0,0,0-.365,2.113h4.494l.1-.412c-.51,0-.291-.607.219-2.381.777-2.721,0-3.061-1.287-3.594a4.393,4.393,0,0,0,3.132-3.036Zm-4.2.462c-.242.85-.947,1.189-2.088,1.262h-2.139l.777-2.671h2.064C154.748,94.761,155.379,95.2,155.111,96.17Zm34.756-.656c.34-2.356-.826-4.275-4.566-4.275-3.4,0-6.291,1.458-7.092,4.323-1.482,5.172,6.7,3.764,6.119,5.805-.17.631-1.02,1-2.113,1a2.011,2.011,0,0,1-1.164-.34,1.1,1.1,0,0,1-.438-1.07h-4.25c-.584,2.43,1.141,4.518,4.711,4.518,3.717,0,6.775-1.506,7.65-4.662,1.408-4.906-6.727-3.645-6.145-5.684.121-.485.631-.777,1.627-.777a2.037,2.037,0,0,1,1.068.267.8.8,0,0,1,.365.9h4.228ZM167.74,91.6l-.291.438L159.312,104.7l-.266.436h4.346l1.021-1.8h4.42v1.8h4.42l-1-13.528H167.74Zm-.291,8.915h-1.408l1.408-2.453,1.359-2.381.049,4.834h-1.408ZM139.059,91.6H132.6l-3.838,13.528h6.607c.291,0,.582-.023.873-.023,3.061-.17,5.318-1.287,6.1-4.057.414-1.48-.023-2.721-1.359-3.107a5.231,5.231,0,0,0,2.6-2.939c.751-2.7-1.46-3.4-4.518-3.4Zm-.754,9.131c-.268.949-1.068,1.191-2.064,1.24H134.1l.7-2.5h1.433C137.625,99.473,138.621,99.545,138.305,100.734Zm.9-4.9a1.791,1.791,0,0,1-1.869,1.19h-1.823l.631-2.259H137.7C138.645,94.761,139.494,94.761,139.2,95.829Zm-16.781-4.59a9.317,9.317,0,0,0-2.018.219,9.47,9.47,0,0,0-7.066,6.8c-1.287,4.59.8,7.213,5.027,7.213a9.273,9.273,0,0,0,2.039-.219,9.655,9.655,0,0,0,7.117-6.969C128.541,94.712,127.254,91.239,122.422,91.239Zm.654,7.044c-.484,1.771-1.359,3.182-2.672,3.691a3.233,3.233,0,0,1-1.092.193c-2.113,0-2.039-2.162-1.531-3.885a5.271,5.271,0,0,1,2.623-3.546,2.847,2.847,0,0,1,1.045-.195C123.416,94.493,123.611,96.437,123.076,98.283ZM106.318,91.6H99.955l-3.327,11.756-.51,1.771h4.421l1.336-4.736h1.336a2.824,2.824,0,0,1,1.627.316c.461.34.389.973.072,2.041-.023.1-.049.17-.072.266a7.948,7.948,0,0,0-.365,2.113h4.494l.1-.412c-.512,0-.293-.607.217-2.381.777-2.721,0-3.061-1.262-3.594a4.512,4.512,0,0,0,3.205-3.3C111.953,92.818,110.836,91.6,106.318,91.6Zm.608,4.567c-.242.85-.947,1.189-2.088,1.262H102.7l.775-2.671h2.066c1.02,0,1.651.437,1.384,1.409Z" transform="translate(662 1021)" fill="#fff" fill-rule="evenodd"></path></g></svg>