<svg xmlns="http://www.w3.org/2000/svg" width="41.615" height="40.017" viewBox="0 0 41.615 40.017"><path id="Caminho_2868" data-name="Caminho 2868" d="M226.858,92.54a.78.78,0,0,0-.771-.688H193.466a.778.778,0,0,0-.771.663l-4.046,26.124a.8.8,0,0,0,.182.624.764.764,0,0,0,.594.28h14.953l-2.8,7.7h-4.557a.781.781,0,0,0-.786.781v3.064a.781.781,0,0,0,.786.781h26.395a.783.783,0,0,0,.781-.781v-3.064a.783.783,0,0,0-.781-.781H217.5l-2.794-7.7h14.751a.793.793,0,0,0,.8-.781.88.88,0,0,0-.044-.265Zm-34.752,14.035h5.912l-.525,4.911h-6.148Zm1-6.482h5.6l-.525,4.916h-5.839Zm33.785,4.916h-5.741l-.393-4.916h5.495Zm-7.312,0H213.9l-.133-4.916h5.421Zm-12.566,0,.26-4.916H212.2l.133,4.916Zm5.357,1.566.128,4.911h-5.834l.265-4.911Zm1.355-8.053-.138-5.063c0-.034,5.087-.034,5.087-.034-.01.113.388,5.1.388,5.1Zm-1.566,0h-4.8l.265-5c-.015-.093,4.41-.093,4.41-.093C212.023,93.5,212.161,98.522,212.161,98.522Zm-6.1-5.087-.27,5.087h-5.333l.526-4.96c-.01-.138,5.082-.138,5.082-.138Zm-.354,6.659-.26,4.916h-5.677l.521-4.916Zm-6.109,6.482h5.765l-.26,4.911h-6.025Zm5.416,6.482-.26,4.92h-6.369l.521-4.92Zm1.571,0h5.962l.133,4.92h-6.354Zm7.533,0h6.114l.388,4.92h-6.369Zm-.044-1.571-.133-4.911H219.7l.4,4.911Zm7.209-4.911h5.814l.634,4.911h-6.055Zm4.773-8.053h-5.416l-.407-5.1h5.166Zm-31.909-5.1h5.274l-.54,5.1h-5.524ZM191.1,113.057h6.227l-.521,4.92h-6.467Zm31.521,17.251H197.8v-1.5H222.62Zm-19.372-3.064,2.794-7.7h6.993l2.794,7.7Zm18.945-9.266-.4-4.92h6.133l.633,4.92Z" transform="translate(-188.641 -91.853)" fill="#ecbe76"></path></svg>