<svg xmlns="http://www.w3.org/2000/svg" width="29.694" height="47.446" viewBox="0 0 29.694 47.446"><path id="Caminho_2872" data-name="Caminho 2872" d="M236,115.7h-4.233v-7.444a.837.837,0,0,0-.835-.835h-2.352a.833.833,0,0,0-.83.835V115.7H216.225v-7.444a.833.833,0,0,0-.83-.835h-2.352a.833.833,0,0,0-.83.835V115.7h-4.238a.838.838,0,0,0-.835.84v4.469a.834.834,0,0,0,.835.835H236a.834.834,0,0,0,.835-.835v-4.469A.838.838,0,0,0,236,115.7Zm-6.58-6.61h.673v6.61h-.673Zm-15.537,0h.673v6.61h-.673Zm21.288,11.088h-26.36v-2.8h26.36Zm.177,2.716H208.629a.838.838,0,0,0-.835.84v9.914a.774.774,0,0,0,.054.285l3.442,9.571a.838.838,0,0,0,.786.555h7.091v9.978a.826.826,0,0,0,.83.83h3.983a.833.833,0,0,0,.835-.83v-9.978H231.9a.838.838,0,0,0,.786-.555l3.447-9.571a.888.888,0,0,0,.049-.285v-9.914A.841.841,0,0,0,235.347,122.9ZM223.14,153.21h-2.3v-9.148h2.3Zm11.373-19.7-3.2,8.878H212.66l-3.2-8.878v-8.937h25.049Zm-19.117.732a2.006,2.006,0,1,0-2.013-2.008A2.01,2.01,0,0,0,215.4,134.24Zm0-2.347a.339.339,0,1,1-.344.339A.338.338,0,0,1,215.4,131.893Zm13.185,2.347a2.006,2.006,0,1,0-2.008-2.008A2.012,2.012,0,0,0,228.581,134.24Zm0-2.347a.339.339,0,1,1-.334.339A.341.341,0,0,1,228.581,131.893Z" transform="translate(-207.141 -107.423)" fill="#ecbe76"></path></svg>