<svg xmlns="http://www.w3.org/2000/svg" width="25.047" height="40.02" viewBox="0 0 25.047 40.02"><path id="Caminho_2872" data-name="Caminho 2872" d="M231.483,114.406h-3.57v-6.279a.706.706,0,0,0-.7-.7h-1.984a.7.7,0,0,0-.7.7v6.279H214.8v-6.279a.7.7,0,0,0-.7-.7H212.12a.7.7,0,0,0-.7.7v6.279h-3.574a.707.707,0,0,0-.7.708v3.769a.7.7,0,0,0,.7.7h23.638a.7.7,0,0,0,.7-.7v-3.769A.707.707,0,0,0,231.483,114.406Zm-5.55-5.575h.568v5.575h-.568Zm-13.105,0h.567v5.575h-.567Zm17.956,9.353H208.549v-2.365h22.234Zm.149,2.291H208.4a.707.707,0,0,0-.7.708v8.363a.653.653,0,0,0,.046.24l2.9,8.073a.707.707,0,0,0,.663.468h5.981v8.417a.7.7,0,0,0,.7.7h3.359a.7.7,0,0,0,.7-.7v-8.417h5.977a.707.707,0,0,0,.663-.468l2.908-8.073a.749.749,0,0,0,.041-.24v-8.363A.71.71,0,0,0,230.933,120.474Zm-10.3,25.569h-1.943v-7.717h1.943Zm9.593-16.618-2.7,7.489H211.8l-2.7-7.489v-7.538h21.128Zm-16.125.617a1.692,1.692,0,1,0-1.7-1.694A1.7,1.7,0,0,0,214.1,130.042Zm0-1.98a.286.286,0,1,1-.29.286A.286.286,0,0,1,214.1,128.063Zm11.121,1.98a1.692,1.692,0,1,0-1.694-1.694A1.7,1.7,0,0,0,225.225,130.042Zm0-1.98a.286.286,0,1,1-.282.286A.287.287,0,0,1,225.225,128.063Z" transform="translate(-207.141 -107.423)" fill="#ecbe76"></path></svg>