<svg xmlns="http://www.w3.org/2000/svg" width="37.106" height="43.096" viewBox="0 0 37.106 43.096"><path id="Caminho_2862" data-name="Caminho 2862" d="M220.781,98.828,207.6,107.712a2.318,2.318,0,0,0-1.016,1.537,2.292,2.292,0,0,0,.388,1.783,2.423,2.423,0,0,0,3.354.614l13.185-8.873a2.364,2.364,0,0,0,1.017-1.537,2.331,2.331,0,0,0-.393-1.792A2.5,2.5,0,0,0,220.781,98.828Zm1.851,2.642-13.19,8.873a.9.9,0,0,1-1.193-.206.774.774,0,0,1-.128-.6.792.792,0,0,1,.349-.53l13.185-8.878a.893.893,0,0,1,.486-.142.863.863,0,0,1,.707.358.789.789,0,0,1,.133.6A.8.8,0,0,1,222.632,101.47Zm-7.4,33.166a4.4,4.4,0,0,0,4.562-4.061c.206-.584,1.758-3.437,3.182-5.957a.753.753,0,0,0,.1-.388V120.99a.785.785,0,0,0-.786-.786c-.133,0-.133-.791-.133-.791a.785.785,0,0,0-.786-.786l-.034-1.562,2.156-1.542a2.363,2.363,0,0,0,.521-3.344,2.493,2.493,0,0,0-3.364-.516l-2.986,2.146a2.36,2.36,0,0,0-.521,3.344,2.106,2.106,0,0,0,.221.255v1.218a.786.786,0,0,0-.776.786v.791h-2.706v-.791a.781.781,0,0,0-.781-.786l-.015-2.161,10.69-7.248a2.37,2.37,0,0,0,1.007-1.547,2.306,2.306,0,0,0-.4-1.783,2.5,2.5,0,0,0-3.354-.6l-13.509,9.173a2.356,2.356,0,0,0-.614,3.325,2.4,2.4,0,0,0,1.709,1.007.8.8,0,0,0-.3.624v.791a.824.824,0,0,0-.928.786v3.241a.752.752,0,0,0,.1.388c1.419,2.519,2.971,5.372,3.182,5.957A4.391,4.391,0,0,0,215.237,134.637Zm-6.276-10.607v-2.259a.831.831,0,0,0,.933-.781v-.8a.785.785,0,0,0,.805-.781V117.68a.789.789,0,0,0-1.218-.653.93.93,0,0,1-1.287-.147.81.81,0,0,1-.133-.6.833.833,0,0,1,.349-.53l13.509-9.168a.894.894,0,0,1,1.193.211.786.786,0,0,1,.138.6.833.833,0,0,1-.349.53L211.873,115.4a.8.8,0,0,0-.339.648v3.364a.78.78,0,0,0,.781.781l.01.8a.784.784,0,0,0,.786.781h4.267a.788.788,0,0,0,.791-.781v-.8a.785.785,0,0,0,.776-.781v-2.377a.787.787,0,0,0-.339-.643.834.834,0,0,1-.2-.182.791.791,0,0,1,.182-1.129l2.99-2.146a.892.892,0,0,1,1.193.182.8.8,0,0,1,.152.6.806.806,0,0,1-.334.53l-2.48,1.783a.782.782,0,0,0-.329.638v2.745a.781.781,0,0,0,.786.781l.034.8a.783.783,0,0,0,.781.781,12.915,12.915,0,0,1,.133,2.259c-3.285,5.8-3.285,6.222-3.285,6.448a3.021,3.021,0,0,1-5.981,0C212.246,130.251,212.246,129.829,208.961,124.03Zm-.1-18.228a2.439,2.439,0,0,0,1.35-.412l12.836-8.54a2.383,2.383,0,0,0,1.022-1.537,2.354,2.354,0,0,0-.378-1.787,2.5,2.5,0,0,0-3.349-.629L207.5,101.441a2.371,2.371,0,0,0-1.021,1.537,2.324,2.324,0,0,0,.378,1.778A2.433,2.433,0,0,0,208.863,105.8Zm-.491-3.059,12.841-8.54a.881.881,0,0,1,.481-.147.861.861,0,0,1,.707.363.79.79,0,0,1,.128.6.806.806,0,0,1-.349.521l-12.836,8.549a.9.9,0,0,1-1.193-.221.774.774,0,0,1-.128-.594A.814.814,0,0,1,208.372,102.742Zm.437-2.765a2.437,2.437,0,0,0,1.37-.422l5.392-3.673a2.374,2.374,0,0,0,.614-3.329,2.5,2.5,0,0,0-3.359-.589l-5.4,3.668a2.359,2.359,0,0,0-.6,3.329A2.427,2.427,0,0,0,208.809,99.977Zm-.5-3.049,5.4-3.673a.841.841,0,0,1,.491-.152.857.857,0,0,1,.7.354.761.761,0,0,1,.133.6.8.8,0,0,1-.339.525l-5.4,3.673a.891.891,0,0,1-1.193-.211.768.768,0,0,1-.133-.594A.78.78,0,0,1,208.313,96.928Zm34.507,23.281V100.66c0-3.423-1.051-5.245-3.128-5.412-.579-3.177-2.711-3.693-3.988-3.707-1.409.029-3.486.579-4.061,3.707-2.077.167-3.128,1.979-3.128,5.412v19.549a.788.788,0,0,0-.668.781v3.241a.8.8,0,0,0,.1.388s.344.6.8,1.429c.353,2.023,1.075,3.364,2.107,3.909.182.373.255.55.285.619a4.381,4.381,0,0,0,4.434,4.056,4.439,4.439,0,0,0,4.631-4.056c.03-.069.1-.246.285-.619,1.026-.545,1.753-1.886,2.1-3.909.457-.83.8-1.424.8-1.429a.756.756,0,0,0,.108-.388V120.99A.793.793,0,0,0,242.82,120.209Zm-.9,3.82c-.142.255-.427.756-.766,1.375a.66.66,0,0,0-.088.255c-.265,1.63-.8,2.735-1.419,2.961a.788.788,0,0,0-.437.388c-.521,1.031-.575,1.237-.575,1.468a2.994,2.994,0,0,1-5.932,0c0-.226-.059-.442-.574-1.468a.789.789,0,0,0-.437-.388c-.624-.226-1.154-1.331-1.419-2.961a.754.754,0,0,0-.088-.255c-.344-.619-.629-1.12-.771-1.375v-2.269a.782.782,0,0,0,.668-.771V100.66c0-2.632.6-3.855,1.876-3.855a2.233,2.233,0,0,1,.26.025.793.793,0,0,0,.889-.7c.192-2.018,1.026-3.005,2.549-3.025,1.552.02,2.382,1.007,2.578,3.025a.759.759,0,0,0,.295.535.8.8,0,0,0,.589.162,2.342,2.342,0,0,1,.26-.025c1.282,0,1.876,1.223,1.876,3.855v20.33a.782.782,0,0,0,.668.771Zm-2.544-26.512a.746.746,0,0,0-.574.285c-.074.1-.074,20.846-.074,20.846a12.119,12.119,0,0,1-.206,2.2l-.079.4h2.062V100.66C240.507,98.573,240.129,97.517,239.377,97.517Zm.457,23.06h-.579a12.526,12.526,0,0,0,.147-1.93V98.195c.147.074.432.8.432,2.465ZM235.66,93.839c-1.635,0-1.827,1.827-1.827,3.2v3.025c0,.236.01.437.01.594v18.454a9.63,9.63,0,0,0,.295,2.072.772.772,0,0,0,.747.574h1.566a.768.768,0,0,0,.746-.574,9.663,9.663,0,0,0,.3-2.1V100.66c0-.157,0-.359.01-.619v-3C237.506,95.666,237.315,93.844,235.66,93.839Zm.29,25.216a8.453,8.453,0,0,1-.123,1.159h-.319a9.3,9.3,0,0,1-.123-1.124V100.66c0-.172,0-.393,0-.619v-3a3.625,3.625,0,0,1,.226-1.655c.088-.015.354.25.354,1.655v2.971c-.01.255-.01.476-.01.648Zm-3.339-.408V97.9a.845.845,0,0,0-.653-.383c-.746,0-1.124,1.056-1.124,3.143v20.59H232.9l-.079-.4A11.623,11.623,0,0,1,232.611,118.648Zm-1.1,1.93V100.66c0-1.537.241-2.274.427-2.4v20.389a12.444,12.444,0,0,0,.152,1.93Z" transform="translate(-206.386 -91.541)" fill="#ecbe76"></path></svg>