<svg xmlns="http://www.w3.org/2000/svg" width="68.562" height="65.822" viewBox="0 0 68.562 65.822"><g id="Page-1" transform="translate(-0.312 -0.622)"><g id="Segments-circle" transform="translate(-64)"><path id="Shape" d="M119.311,31.236a30,30,0,0,1-39.8,33.4l4.785-13.153a16.006,16.006,0,0,0,21.235-17.818ZM75.028.622l9,10.725a16,16,0,0,0,4.81,27.294L84.052,51.794A30,30,0,0,1,75.028.622ZM113.59,5.7a30,30,0,0,1,19.284,22.981L119.09,31.106A16,16,0,0,0,93.046,21.63l-9-10.725A30,30,0,0,1,113.59,5.7Z" fill="#ecbe76" fill-rule="evenodd"></path></g></g></svg>