<svg xmlns="http://www.w3.org/2000/svg" width="77.08" height="74" viewBox="0 0 77.08 74"><g id="Page-1" transform="translate(-0.312 -0.622)"><g id="Segments-circle" transform="translate(0.312 0.622)"><path id="Shape" d="M126.144,35.04A33.726,33.726,0,0,1,81.395,72.588L86.774,57.8A17.995,17.995,0,0,0,110.647,37.77ZM76.359.622,86.476,12.679a17.988,17.988,0,0,0,5.407,30.685L86.5,58.151A33.727,33.727,0,0,1,76.359.622Zm43.353,5.705a33.722,33.722,0,0,1,21.679,25.836l-15.5,2.73A17.988,17.988,0,0,0,96.615,24.24L86.5,12.183A33.729,33.729,0,0,1,119.713,6.327Z" transform="translate(-64.312 -0.622)" fill="#ecbe76" fill-rule="evenodd"></path></g></g></svg>