<svg xmlns="http://www.w3.org/2000/svg" width="36.438" height="40.02" viewBox="0 0 36.438 40.02"><path id="Caminho_2857" data-name="Caminho 2857" d="M210.137,86.384a5.055,5.055,0,0,0,5.049-5.042l3.21-.495a6.4,6.4,0,0,0,2.56,3.593l-1.918,2.776a5.106,5.106,0,1,0,.936.656L221.96,85a6.352,6.352,0,0,0,7.624-1.911l2.8,2.066a5,5,0,0,0-.965,2.955,5.057,5.057,0,1,0,1.743-3.808L230.2,82.128a6.292,6.292,0,0,0,.732-2.955,6.394,6.394,0,0,0-5.809-6.362V66.765a5.049,5.049,0,1,0-1.148,0v6.046a6.4,6.4,0,0,0-5.813,6.362c0,.183.014.362.029.545l-3.141.484a5.049,5.049,0,1,0-4.916,6.182Zm10.414,5.282a3.9,3.9,0,1,1-3.9-3.9,3.862,3.862,0,0,1,1.926.513.588.588,0,0,0,.215.308.57.57,0,0,0,.326.1A3.785,3.785,0,0,1,220.551,91.666Zm15.918-7.459a3.905,3.905,0,1,1-3.9,3.9A3.906,3.906,0,0,1,236.469,84.207ZM220.647,61.752a3.905,3.905,0,1,1,3.905,3.9A3.912,3.912,0,0,1,220.647,61.752Zm3.905,12.182a5.239,5.239,0,1,1-5.243,5.239A5.243,5.243,0,0,1,224.553,73.933Zm-14.416,3.5a3.905,3.905,0,1,1-3.905,3.9A3.9,3.9,0,0,1,210.137,77.433Zm12.9,3.192a1.936,1.936,0,0,1-.43-1.327,1.991,1.991,0,0,1,.434-1.356,1.592,1.592,0,0,1,1.248-.509,2.513,2.513,0,0,1,.491.054,1.734,1.734,0,0,1,.409.14l.226.115-.326.9-.276-.108a1.315,1.315,0,0,0-.283-.09,1.2,1.2,0,0,0-.255-.032c-.3,0-.624.108-.624.875a1.121,1.121,0,0,0,.165.681.5.5,0,0,0,.434.183,1.709,1.709,0,0,0,.66-.147l.391-.158v1a2.077,2.077,0,0,1-1.044.269A1.564,1.564,0,0,1,223.039,80.625Zm1.7-19.017a.6.6,0,0,0-.47.154,1.023,1.023,0,0,0-.147.66V64.28H223.1V59.446h1.029V60.8a1.477,1.477,0,0,1,.663-.143,1.4,1.4,0,0,1,1.022.344,1.365,1.365,0,0,1,.362,1.033V64.28h-1.026V62.049a.538.538,0,0,0-.09-.351A.446.446,0,0,0,224.743,61.608ZM209.585,83.921h-1.026V79.09h1.026v1.352a1.553,1.553,0,0,1,.667-.14,1.414,1.414,0,0,1,1.022.341,1.375,1.375,0,0,1,.366,1.036v2.241H210.61V81.694a.545.545,0,0,0-.09-.351.458.458,0,0,0-.312-.086.583.583,0,0,0-.473.154,1.018,1.018,0,0,0-.151.656Zm8.323,7.28a1.388,1.388,0,0,1,.362,1.036v2.241h-1.026V92.254a.548.548,0,0,0-.093-.355.455.455,0,0,0-.312-.09.609.609,0,0,0-.473.154,1.049,1.049,0,0,0-.151.66v1.854h-1.026v-4.83h1.026V91a1.513,1.513,0,0,1,.667-.14A1.429,1.429,0,0,1,217.908,91.2Zm18.152-.481h-1.029V85.893h1.029v1.352a1.488,1.488,0,0,1,.663-.143,1.43,1.43,0,0,1,1.022.341,1.375,1.375,0,0,1,.366,1.036V90.72h-1.029V88.5a.564.564,0,0,0-.09-.355.456.456,0,0,0-.316-.082.6.6,0,0,0-.466.151,1.031,1.031,0,0,0-.151.66Z" transform="translate(-205.084 -56.699)" fill="#ecbe76"></path></svg>