<svg xmlns="http://www.w3.org/2000/svg" width="53.702" height="53.703" viewBox="0 0 53.702 53.703"><path id="Caminho_2869" data-name="Caminho 2869" d="M244.635,99.816a13.323,13.323,0,1,0-13.322,13.313A13.338,13.338,0,0,0,244.635,99.816Zm-13.322,11.692a11.7,11.7,0,1,1,11.7-11.692A11.706,11.706,0,0,1,231.313,111.508ZM230.5,84.2V74.914a.813.813,0,0,1,1.625,0V84.2a.813.813,0,1,1-1.625,0ZM219.94,82.948l-2.318-4.022a.664.664,0,0,1-.1-.3.81.81,0,0,1,1.508-.506l2.323,4.017,2.318,4.012a.845.845,0,0,1,.1.314.822.822,0,0,1-.4.805.866.866,0,0,1-.408.1.828.828,0,0,1-.707-.408Zm-2.318,10.239a.819.819,0,0,1-1.115.3l-8.034-4.641a.815.815,0,0,1,.81-1.414l8.039,4.645A.817.817,0,0,1,217.622,93.187ZM214.783,102l-9.276,0a.81.81,0,0,1,0-1.621h9.276a.808.808,0,1,1,0,1.616Zm2.774,8.245-8.039,4.641a.8.8,0,0,1-.4.108.812.812,0,0,1-.408-1.517l8.034-4.641a.814.814,0,0,1,.815,1.409Zm6.217,4.641a.812.812,0,0,1,.3,1.11l-4.641,8.034a.8.8,0,0,1-.7.408.811.811,0,0,1-.707-1.223l4.636-8.029A.8.8,0,0,1,223.775,114.887Zm7.2,12.11V117.72a.813.813,0,0,1,1.625,0V127a.813.813,0,1,1-1.625,0Zm8.451-11.235a.813.813,0,1,1,1.409-.81l4.636,8.039a.807.807,0,0,1-.7,1.213.817.817,0,0,1-.707-.4Zm15.493-1.581a.827.827,0,0,1-1.11.3l-8.034-4.636a.815.815,0,0,1,.81-1.414l8.039,4.636A.818.818,0,0,1,254.918,114.18Zm3.482-13.455a.815.815,0,0,1-.815.81h-9.276a.814.814,0,0,1-.81-.81.8.8,0,0,1,.81-.81h9.276A.806.806,0,0,1,258.4,100.725Zm-13.156-7.95a.806.806,0,0,1,.295-1.1l8.029-4.641a.822.822,0,0,1,1.115.3.813.813,0,0,1-.295,1.1l-8.034,4.645a.825.825,0,0,1-.408.1A.814.814,0,0,1,245.244,92.774Zm-5.927-5.745a.808.808,0,0,1-.3-1.11l4.64-8.039a.813.813,0,0,1,1.4.82l-4.636,8.029a.814.814,0,0,1-.7.408A.857.857,0,0,1,239.317,87.029Z" transform="translate(-204.697 -74.109)" fill="#ecbe76"></path></svg>