<svg xmlns="http://www.w3.org/2000/svg" width="40.02" height="40.02" viewBox="0 0 40.02 40.02"><path id="Caminho_2869" data-name="Caminho 2869" d="M234.46,93.266a9.928,9.928,0,1,0-9.928,9.921A9.94,9.94,0,0,0,234.46,93.266Zm-9.928,8.713a8.717,8.717,0,1,1,8.717-8.713A8.723,8.723,0,0,1,224.531,101.98Zm-.608-20.354V74.709a.606.606,0,0,1,1.211,0v6.916a.606.606,0,1,1-1.211,0Zm-7.868-.93-1.727-3a.5.5,0,0,1-.077-.223.6.6,0,0,1,1.123-.377l1.731,2.993,1.727,2.99a.629.629,0,0,1,.077.234.613.613,0,0,1-.3.6.645.645,0,0,1-.3.077.617.617,0,0,1-.527-.3Zm-1.727,7.63a.61.61,0,0,1-.831.223l-5.987-3.458a.607.607,0,0,1,.6-1.054l5.991,3.462A.609.609,0,0,1,214.329,88.326Zm-2.115,6.569-6.913,0a.6.6,0,0,1,0-1.208h6.913a.6.6,0,1,1,0,1.2Zm2.068,6.144-5.991,3.458a.6.6,0,0,1-.3.08.6.6,0,0,1-.3-1.131l5.987-3.458a.607.607,0,0,1,.607,1.05Zm4.633,3.458a.6.6,0,0,1,.223.827l-3.458,5.987a.593.593,0,0,1-.52.3.6.6,0,0,1-.527-.911l3.455-5.983A.6.6,0,0,1,218.914,104.5Zm5.365,9.024v-6.913a.606.606,0,0,1,1.211,0v6.913a.606.606,0,1,1-1.211,0Zm6.3-8.373a.606.606,0,1,1,1.05-.6l3.454,5.991a.6.6,0,0,1-.52.9.609.609,0,0,1-.527-.3Zm11.546-1.178a.616.616,0,0,1-.827.223l-5.987-3.455a.607.607,0,0,1,.6-1.054l5.99,3.455A.61.61,0,0,1,242.122,103.97Zm2.595-10.027a.608.608,0,0,1-.607.6H237.2a.607.607,0,0,1-.6-.6.6.6,0,0,1,.6-.6h6.913A.6.6,0,0,1,244.717,93.943Zm-9.8-5.925a.6.6,0,0,1,.22-.823l5.983-3.458a.612.612,0,0,1,.831.223.606.606,0,0,1-.22.823l-5.987,3.462a.614.614,0,0,1-.3.077A.606.606,0,0,1,234.913,88.019ZM230.5,83.737a.6.6,0,0,1-.223-.827l3.458-5.991a.606.606,0,0,1,1.047.611l-3.455,5.983a.607.607,0,0,1-.523.3A.639.639,0,0,1,230.5,83.737Z" transform="translate(-204.697 -74.109)" fill="#ecbe76"></path></svg>