<svg xmlns="http://www.w3.org/2000/svg" width="40.027" height="40.02" viewBox="0 0 40.027 40.02"><path id="Caminho_2863" data-name="Caminho 2863" d="M175.316,117.575c.425.7.836,1.385,1.23,2l-2.394,1.686a.7.7,0,0,0,.283,1.266l9.825,1.744a.728.728,0,0,0,.81-.553c.31-1.522.558-2.868.8-4.2.31-1.726.606-3.35,1.031-5.337a.7.7,0,0,0-.3-.735.714.714,0,0,0-.8.009c-.673.474-1.124.788-1.6,1.106-.226.155-.456.314-.721.491-.168-.3-.345-.62-.527-.951-1.3-2.372-2.921-5.328-5.351-5.629-1.784-.212-4.094-.358-6.324-.5-1.177-.075-2.292-.146-3.222-.221a1.1,1.1,0,0,0-.536.031c-2.6,1.058-4.169,4-5.554,6.581-.407.766-.8,1.487-1.195,2.146a.7.7,0,0,0-.075.553.708.708,0,0,0,.35.438l6.935,3.678a.711.711,0,0,0,.934-.257l4.182-6.86C173.886,115.22,174.634,116.451,175.316,117.575Zm-2.863-5.174-4.395,7.209-5.7-3.014c.279-.5.562-1.022.85-1.562,1.306-2.439,2.651-4.952,4.7-5.882.969.08,2.1.15,3.279.226,2.213.142,4.5.288,6.245.5,1.713.2,3.138,2.81,4.284,4.9.332.6.646,1.168.943,1.655a.725.725,0,0,0,.46.319.69.69,0,0,0,.549-.115c.54-.376.943-.646,1.332-.912-.1,1.186-.314,2.377-.522,3.536-.2,1.124-.412,2.253-.655,3.5l-7.471-1.323,1.567-1.1a.7.7,0,0,0,.177-.969c-.482-.73-1.014-1.607-1.576-2.531-.859-1.416-1.832-3.023-2.872-4.457a.708.708,0,0,0-.6-.314A.7.7,0,0,0,172.452,112.4Zm-4.528,23.071-8.01-.611c.677-1.23,1.438-2.465,2.124-3.576.434-.708.85-1.376,1.222-2.009l2.585,1.368a.7.7,0,0,0,1-.828l-2.921-9.546a.7.7,0,0,0-.867-.469c-1.483.412-2.784.805-4.067,1.186-1.682.513-3.275.991-5.244,1.518a.712.712,0,0,0-.15,1.314c.726.376,1.2.637,1.7.912.243.128.5.266.779.42-.19.3-.394.6-.611.912-1.518,2.239-3.408,5.023-2.567,7.329.628,1.7,1.553,3.85,2.456,5.921.451,1.058.894,2.067,1.239,2.894.027.084.057.159.088.235a.777.777,0,0,0,.186.248c2.124,1.832,5.439,1.894,8.365,1.952.872.018,1.695.031,2.469.093a.786.786,0,0,0,.531-.181.727.727,0,0,0,.226-.518l.124-7.851A.707.707,0,0,0,167.925,135.472Zm-.867,7.807c-.58-.027-1.177-.035-1.8-.053-2.748-.049-5.59-.1-7.338-1.5-.372-.89-.814-1.907-1.275-2.97-.85-1.961-1.81-4.187-2.421-5.851-.593-1.624,1.071-4.08,2.412-6.05.385-.571.752-1.106,1.049-1.606a.7.7,0,0,0,.071-.549.669.669,0,0,0-.35-.429c-.589-.319-1.018-.553-1.434-.779,1.129-.451,2.3-.805,3.434-1.146,1.076-.332,2.169-.655,3.377-1L165,128.6l-1.686-.894a.712.712,0,0,0-.947.283c-.425.761-.96,1.633-1.527,2.545-.881,1.416-1.868,3.023-2.673,4.612a.728.728,0,0,0,.022.712.688.688,0,0,0,.544.332l8.422.633Zm21.163-19.8a.722.722,0,0,0-.447-.332.737.737,0,0,0-.553.106l-6.532,4.35a.71.71,0,0,0-.221.943l4.045,6.948c-1.421.146-2.885.217-4.213.283-.8.04-1.576.075-2.279.128L177.679,133a.712.712,0,0,0-.509-.6.7.7,0,0,0-.744.243l-6.2,7.811a.714.714,0,0,0,.1.987c1.2,1,2.275,1.868,3.337,2.717,1.359,1.089,2.642,2.111,4.173,3.426a.72.72,0,0,0,.46.168.65.65,0,0,0,.332-.084.707.707,0,0,0,.372-.7c-.1-.841-.159-1.394-.217-1.974-.027-.257-.053-.522-.084-.828.341,0,.7-.009,1.071-.009,2.713-.013,6.09-.035,7.51-2.04,1.04-1.469,2.275-3.434,3.47-5.342.615-.987,1.208-1.934,1.717-2.717a1.145,1.145,0,0,0,.221-.478c.3-2.793-1.527-5.559-3.138-8.006C189.062,124.846,188.615,124.156,188.221,123.483Zm3.063,9.785c-.527.805-1.115,1.761-1.739,2.757-1.182,1.885-2.4,3.833-3.421,5.275-1,1.412-3.974,1.429-6.364,1.443-.682,0-1.328,0-1.894.04a.681.681,0,0,0-.5.252.71.71,0,0,0-.164.531c.071.646.12,1.115.168,1.571.009.08.013.159.022.23-1.009-.832-1.943-1.58-2.855-2.31-.894-.721-1.8-1.447-2.779-2.261l4.709-5.944.221,1.9a.7.7,0,0,0,.766.62c.859-.075,1.859-.124,2.908-.173,1.682-.089,3.585-.181,5.373-.425a.71.71,0,0,0,.558-.376.733.733,0,0,0-.022-.677l-4.249-7.307,5.364-3.576c.305.5.633,1,.974,1.514,1.518,2.3,3.085,4.678,2.93,6.913Z" transform="translate(-152.688 -107.733)" fill="#ecbe76"></path></svg>