<svg xmlns="http://www.w3.org/2000/svg" width="44.413" height="44.405" viewBox="0 0 44.413 44.405"><path id="Caminho_2863" data-name="Caminho 2863" d="M177.8,118.653c.471.781.928,1.537,1.365,2.22l-2.657,1.871a.78.78,0,0,0,.314,1.4l10.9,1.935a.807.807,0,0,0,.9-.614c.344-1.689.619-3.182.884-4.66.344-1.915.673-3.717,1.144-5.922a.776.776,0,0,0-.329-.815.793.793,0,0,0-.889.01c-.746.525-1.247.874-1.773,1.228-.251.172-.506.349-.8.545-.187-.334-.383-.687-.584-1.056-1.444-2.632-3.241-5.912-5.937-6.246-1.979-.236-4.542-.4-7.017-.555-1.306-.084-2.544-.162-3.575-.246a1.217,1.217,0,0,0-.594.034c-2.887,1.174-4.626,4.434-6.163,7.3-.452.85-.884,1.65-1.326,2.382a.772.772,0,0,0-.083.614.786.786,0,0,0,.388.486l7.695,4.081a.789.789,0,0,0,1.036-.285l4.641-7.611C176.209,116.041,177.039,117.406,177.8,118.653Zm-3.177-5.74-4.876,8-6.32-3.344c.309-.555.624-1.134.943-1.733,1.449-2.706,2.941-5.495,5.21-6.526,1.075.088,2.333.167,3.639.25,2.455.157,4.994.319,6.929.555,1.9.226,3.482,3.118,4.753,5.441.368.663.717,1.3,1.046,1.837a.8.8,0,0,0,.511.354.765.765,0,0,0,.609-.128c.6-.417,1.046-.717,1.478-1.012-.108,1.316-.349,2.637-.579,3.924-.226,1.247-.457,2.5-.727,3.879l-8.289-1.468,1.738-1.223a.777.777,0,0,0,.2-1.075c-.535-.81-1.125-1.783-1.748-2.809-.953-1.571-2.033-3.354-3.187-4.945a.785.785,0,0,0-.668-.349A.773.773,0,0,0,174.618,112.913Zm-5.024,25.6-8.888-.678c.751-1.365,1.6-2.735,2.357-3.968.481-.786.943-1.527,1.355-2.229l2.868,1.517a.78.78,0,0,0,1.115-.918l-3.241-10.592a.78.78,0,0,0-.962-.521c-1.645.457-3.089.894-4.513,1.316-1.866.57-3.634,1.1-5.819,1.684a.79.79,0,0,0-.167,1.458c.805.417,1.336.707,1.881,1.012.27.142.55.295.864.467-.211.329-.437.663-.678,1.012-1.684,2.485-3.781,5.574-2.848,8.132.7,1.886,1.724,4.272,2.725,6.57.5,1.174.992,2.293,1.375,3.212.029.093.064.177.1.26a.862.862,0,0,0,.206.275c2.357,2.033,6.035,2.1,9.281,2.166.967.02,1.881.034,2.74.1a.873.873,0,0,0,.589-.2.807.807,0,0,0,.25-.575l.138-8.711A.785.785,0,0,0,169.595,138.512Zm-.962,8.662c-.643-.029-1.306-.039-2-.059-3.05-.054-6.2-.113-8.142-1.665-.412-.987-.9-2.116-1.414-3.3-.943-2.175-2.008-4.645-2.686-6.492-.658-1.8,1.188-4.528,2.676-6.713.427-.633.835-1.228,1.164-1.783a.773.773,0,0,0,.078-.609.743.743,0,0,0-.388-.476c-.653-.354-1.129-.614-1.591-.864,1.252-.5,2.549-.894,3.811-1.272,1.193-.368,2.406-.727,3.747-1.115l2.46,8.058-1.871-.992a.79.79,0,0,0-1.051.314c-.471.845-1.066,1.812-1.694,2.824-.977,1.571-2.072,3.354-2.966,5.117a.808.808,0,0,0,.025.791.764.764,0,0,0,.6.368l9.345.7Zm23.483-21.965a.8.8,0,0,0-.5-.368.817.817,0,0,0-.614.118l-7.248,4.827a.787.787,0,0,0-.246,1.046l4.488,7.71c-1.576.162-3.2.241-4.675.314-.889.044-1.748.083-2.529.142l-.378-3.231a.79.79,0,0,0-.565-.663.781.781,0,0,0-.825.27l-6.885,8.667a.792.792,0,0,0,.108,1.1c1.336,1.115,2.524,2.072,3.7,3.015,1.508,1.208,2.932,2.342,4.631,3.8a.8.8,0,0,0,.511.187.722.722,0,0,0,.368-.093.785.785,0,0,0,.412-.781c-.113-.933-.177-1.547-.241-2.19-.029-.285-.059-.579-.093-.918.378,0,.781-.01,1.188-.01,3.01-.015,6.757-.039,8.333-2.264,1.154-1.63,2.524-3.811,3.85-5.927.683-1.1,1.341-2.146,1.905-3.015a1.271,1.271,0,0,0,.246-.53c.334-3.1-1.694-6.168-3.482-8.883C193.048,126.721,192.552,125.955,192.115,125.209Zm3.4,10.857c-.584.894-1.237,1.954-1.93,3.059-1.311,2.092-2.666,4.253-3.8,5.853-1.115,1.566-4.41,1.586-7.061,1.6-.756,0-1.473,0-2.1.044a.755.755,0,0,0-.55.28.788.788,0,0,0-.182.589c.079.717.133,1.237.187,1.743.01.088.015.177.024.255-1.12-.923-2.156-1.753-3.167-2.563-.992-.8-1.994-1.606-3.084-2.509l5.225-6.595.246,2.107a.781.781,0,0,0,.85.687c.953-.083,2.062-.137,3.226-.191,1.866-.1,3.978-.2,5.962-.471a.788.788,0,0,0,.619-.417.813.813,0,0,0-.025-.751l-4.714-8.107,5.952-3.968c.339.55.7,1.1,1.08,1.679,1.684,2.549,3.423,5.191,3.251,7.67Z" transform="translate(-152.688 -107.733)" fill="#ecbe76"></path></svg>