<svg xmlns="http://www.w3.org/2000/svg" width="524.742" height="524.742" viewBox="0 0 524.742 524.742"><path id="Caminho_1334" data-name="Caminho 1334" d="M11.564,180.16l109.212,72.874,131.177-87.446-54.606-36.554,71.042-47.212L421.332,183.857l-251.3,167.531,54.622,36.537L536.306,180.16,273.935,5.252ZM536.306,355.069,426.878,282.194,295.684,369.657l54.622,36.337-71.042,47.412L126.321,351.372l251.3-167.531L323,147.32,11.564,355.069,273.935,529.994Zm0-276.942-54.822,36.537L426.861,78.126,536.306,5.252ZM11.564,457.1,66.17,420.566,120.776,457.1,11.564,529.994Z" transform="translate(-11.564 -5.252)" fill="#1d2340" fill-rule="evenodd" opacity="0.4"></path></svg>