<svg xmlns="http://www.w3.org/2000/svg" width="49.897" height="54.802" viewBox="0 0 49.897 54.802"><path id="Caminho_2857" data-name="Caminho 2857" d="M212,97.349a6.922,6.922,0,0,0,6.914-6.9l4.4-.678a8.763,8.763,0,0,0,3.506,4.92l-2.627,3.8a6.992,6.992,0,1,0,1.282.9l2.721-3.933a8.7,8.7,0,0,0,10.44-2.617l3.84,2.829a6.843,6.843,0,0,0-1.321,4.046,6.925,6.925,0,1,0,2.387-5.215l-4.056-2.976a8.617,8.617,0,0,0,1-4.046,8.755,8.755,0,0,0-7.955-8.711V70.483a6.914,6.914,0,1,0-1.571,0v8.279A8.76,8.76,0,0,0,223,87.474c0,.25.02.5.039.746l-4.3.663A6.914,6.914,0,1,0,212,97.349Zm14.26,7.233a5.345,5.345,0,1,1-5.343-5.343,5.289,5.289,0,0,1,2.637.7.806.806,0,0,0,.295.422.78.78,0,0,0,.447.133A5.184,5.184,0,0,1,226.264,104.582Zm21.8-10.214a5.348,5.348,0,1,1-5.343,5.343A5.349,5.349,0,0,1,248.062,94.368ZM226.4,63.618a5.348,5.348,0,1,1,5.348,5.343A5.357,5.357,0,0,1,226.4,63.618ZM231.744,80.3a7.174,7.174,0,1,1-7.179,7.174A7.18,7.18,0,0,1,231.744,80.3ZM212,85.092a5.348,5.348,0,1,1-5.348,5.343A5.345,5.345,0,0,1,212,85.092Zm17.668,4.37a2.652,2.652,0,0,1-.589-1.817,2.726,2.726,0,0,1,.594-1.856,2.18,2.18,0,0,1,1.709-.7,3.441,3.441,0,0,1,.673.074,2.375,2.375,0,0,1,.56.192l.309.157-.447,1.233L232.1,86.6a1.8,1.8,0,0,0-.388-.123,1.649,1.649,0,0,0-.349-.044c-.417,0-.855.147-.855,1.2a1.534,1.534,0,0,0,.226.933.685.685,0,0,0,.594.25,2.341,2.341,0,0,0,.9-.2l.535-.216v1.375a2.844,2.844,0,0,1-1.429.368A2.142,2.142,0,0,1,229.671,89.463ZM232,63.422a.821.821,0,0,0-.643.211,1.4,1.4,0,0,0-.2.9V67.08H229.75v-6.62h1.409v1.851a2.023,2.023,0,0,1,.909-.2,1.917,1.917,0,0,1,1.4.471,1.869,1.869,0,0,1,.5,1.414V67.08h-1.4V64.026a.737.737,0,0,0-.123-.481A.611.611,0,0,0,232,63.422ZM211.247,93.976h-1.4V87.361h1.4v1.851a2.126,2.126,0,0,1,.913-.192,1.936,1.936,0,0,1,1.4.467,1.883,1.883,0,0,1,.5,1.419v3.069h-1.409v-3.05a.747.747,0,0,0-.123-.481.627.627,0,0,0-.427-.118.8.8,0,0,0-.648.211,1.393,1.393,0,0,0-.206.9Zm11.4,9.969a1.9,1.9,0,0,1,.5,1.419v3.069h-1.4v-3.045a.751.751,0,0,0-.128-.486.622.622,0,0,0-.427-.123.833.833,0,0,0-.648.211,1.436,1.436,0,0,0-.206.9v2.539h-1.4v-6.615h1.4v1.851a2.071,2.071,0,0,1,.913-.192A1.957,1.957,0,0,1,222.644,103.944Zm24.857-.658h-1.409v-6.61H247.5v1.851a2.038,2.038,0,0,1,.908-.2,1.958,1.958,0,0,1,1.4.467,1.883,1.883,0,0,1,.5,1.419v3.069H248.9v-3.045a.772.772,0,0,0-.123-.486.624.624,0,0,0-.432-.113.816.816,0,0,0-.638.206,1.412,1.412,0,0,0-.206.9Z" transform="translate(-205.084 -56.699)" fill="#184cc0"></path></svg>