<svg xmlns="http://www.w3.org/2000/svg" width="161.057" height="63.556" viewBox="0 0 161.057 63.556"><g id="Grupo_13492" data-name="Grupo 13492" transform="translate(-370.125 -1293.015)"><g id="Grupo_4" data-name="Grupo 4" transform="translate(370.125 1320.981)"><g id="Grupo_3" data-name="Grupo 3" transform="translate(0 0)"><path id="Caminho_12" data-name="Caminho 12" d="M374.149,1360.424a4.031,4.031,0,0,1-4.024-4.229,3.87,3.87,0,0,1,4.024-4.059h4.492v1.448h-4.492a2.537,2.537,0,0,0-2.577,2.679,2.567,2.567,0,0,0,2.577,2.713h4.492v1.448Z" transform="translate(-370.125 -1352.023)" fill="#efede6"></path><path id="Caminho_13" data-name="Caminho 13" d="M422.549,1360.3l-1.242-2.086h-3.922l.684-1.174h2.542l-1.847-3.1L415,1360.3h-1.653l4.765-7.934a.808.808,0,0,1,.707-.468.792.792,0,0,1,.7.468l4.777,7.934Z" transform="translate(-392.819 -1351.896)" fill="#efede6"></path><path id="Caminho_14" data-name="Caminho 14" d="M469.956,1360.424l-2.1-2.3h-3.1v-1.276h3.454a1.461,1.461,0,0,0,1.585-1.665,1.429,1.429,0,0,0-1.585-1.6H463.7v6.84h-1.437v-8.287h5.951a2.788,2.788,0,0,1,3.01,3.021,2.724,2.724,0,0,1-1.71,2.747l2.5,2.52Z" transform="translate(-418.5 -1352.023)" fill="#efede6"></path><path id="Caminho_15" data-name="Caminho 15" d="M510.1,1360.424v-6.84h-3.146v-1.448h7.74v1.448h-3.146v6.84Z" transform="translate(-441.963 -1352.023)" fill="#efede6"></path><path id="Caminho_16" data-name="Caminho 16" d="M549.261,1360.424v-8.287h7.4v1.448H550.7v5.392h5.974v1.448Zm2.5-3.6v-1.22h4.594v1.22Z" transform="translate(-464.179 -1352.023)" fill="#efede6"></path><path id="Caminho_17" data-name="Caminho 17" d="M591.477,1360.424v-8.287h1.448v6.84H598.5v1.448Z" transform="translate(-486.344 -1352.023)" fill="#efede6"></path></g></g><g id="Grupo_6" data-name="Grupo 6" transform="translate(479.447 1293.015)"><g id="Grupo_5" data-name="Grupo 5"><path id="Caminho_18" data-name="Caminho 18" d="M644.983,1318.025l-4.893,4.9c6.91,8.658,6.647,21.823-.074,30.043l-34.976-34.924-4.743,4.752,15.192,15.153-15.164,15.109,4.8,4.827,15.044-15.048,15.033,15.013a24.1,24.1,0,0,1-12.345,4.86,24.592,24.592,0,0,1-17.47-4.786l-4.868,4.838c11.107,9.385,28.723,9.187,39.665-.164l-4.58-4.5,4.914-4.9,4.5,4.62A31.658,31.658,0,0,0,644.983,1318.025Z" transform="translate(-600.296 -1306.146)" fill="#02ffa9"></path><path id="Caminho_19" data-name="Caminho 19" d="M635.462,1304.918l.354-.364,0,0,.178-.175,4.365-4.392c-12.474-10.19-30.227-8.354-39.566.024l4.784,4.788A24.86,24.86,0,0,1,635.462,1304.918Z" transform="translate(-600.555 -1293.015)" fill="#02ffa9"></path></g><path id="Caminho_20" data-name="Caminho 20" d="M661.233,1318.1c-5.012,4.994-6.437,6.4-11.518,11.465l4.8,4.826,11.467-11.471Z" transform="translate(-626.243 -1306.188)" fill="#efede6"></path></g></g></svg>