<svg xmlns="http://www.w3.org/2000/svg" width="58.107" height="56.17" viewBox="0 0 58.107 56.17"><g id="Grupo_2994" data-name="Grupo 2994" transform="translate(-310.5 -316.916)"><path id="Caminho_23" data-name="Caminho 23" d="M363.807,339.56l-.24.321-.24.324-.811,1.05-.811,1.05c-.008.01-.28.368-.631.863s-.779,1.125-1.1,1.679H341.017a1.115,1.115,0,0,0,0,2.231h18.4c0,.058-.008.129-.014.223s-.015.21-.025.356q-.025.335-.074.67t-.122.666H335.295a2.869,2.869,0,0,0-.414-.922,1.532,1.532,0,0,0-.775-.579l-.365-.12-.365-.12-.026-.008-.026-.008a6.328,6.328,0,0,1-.8-.268,1.9,1.9,0,0,1-.342-.179c0-.027.01-.058.016-.088l.017-.089a2.6,2.6,0,0,0-.093-1.583,3.047,3.047,0,0,0-1.7-1.463c-.133-.059-.26-.108-.388-.152s-.258-.084-.4-.127-.293-.091-.468-.149-.375-.129-.613-.221c-.344-.133-1-.386-1.586-.617s-1.12-.44-1.222-.485l-.018-.008-.018-.008c-.1-.041-.208-.179-.32-.413a6.623,6.623,0,0,1-.351-.989h30.811a1.115,1.115,0,1,0,0-2.231H323.5a4.876,4.876,0,0,0-1.169.2c-.406.111-.784.242-1,.32l-.012,0-.012,0a4.57,4.57,0,0,1-1.263.26,1.63,1.63,0,0,1-1.733-.89,1.115,1.115,0,0,0-.658-.615,1.35,1.35,0,0,0-.753-.031,11.6,11.6,0,0,0-1.226.362c-.208.068-.493.161-.77.246s-.547.162-.724.2a1.817,1.817,0,0,1-.784-.745,1.652,1.652,0,0,1-.162-.774,2.525,2.525,0,0,1,.2-.915,2.99,2.99,0,0,1,.284-.549,1.116,1.116,0,0,0,.224-1.008c-.006-.028-.013-.074-.022-.133s-.017-.131-.025-.213h51.294a2.011,2.011,0,0,1,.306.431,3.561,3.561,0,0,1,.281.714c.025.086.051.184.072.281a1.4,1.4,0,0,1,.035.277,3.935,3.935,0,0,1-.635,1.9,22.378,22.378,0,0,1-1.433,2.067Zm-5.737,12.666a25.969,25.969,0,0,1-1.336,2.676,6.2,6.2,0,0,1-1.125,1.476,1.86,1.86,0,0,1-.745.42,6.051,6.051,0,0,1-1.037.164,11.441,11.441,0,0,0-1.938.33,10.586,10.586,0,0,0-2.684,1.177,3.82,3.82,0,0,0-.579.478c-.426.386-1.183,1.1-2.562,2.453a1.116,1.116,0,0,0-.333.74c-.008.153-.014.295-.02.428s-.011.256-.016.37c-.014.353-.025.6-.042.793a1.63,1.63,0,0,1-.079.421,2.591,2.591,0,0,1-.267.481c-.134.2-.315.46-.548.79l-.079.112-.079.112-.515.613-.516.613-.449.534-.449.534-.035.044-.033.046-.666.978-.666.978c-.111-.1-.222-.205-.318-.3s-.179-.174-.233-.226c-.135-.132-.231-.226-.312-.3a1.459,1.459,0,0,0-.225-.169,1.763,1.763,0,0,0-.276-.132c-.148-.06-.384-.15-.8-.308l-.739-.282c-.262-.1-.534-.206-.8-.311a.589.589,0,0,1-.252-.186.613.613,0,0,1-.127-.41.586.586,0,0,1,.1-.295c.624-.927,1.27-1.837,1.8-2.551a15.014,15.014,0,0,1,1.1-1.381,1.115,1.115,0,0,0,.181-1.419c-1.061-1.657-2.168-3.428-3.066-4.906s-1.587-2.665-1.81-3.153c.033-.283.058-.662.07-1.085s.013-.891,0-1.355h22.891c-.115.31-.2.533-.263.691s-.1.254-.128.31Zm-39.783-28a1.184,1.184,0,0,1,.79-.52,2.3,2.3,0,0,1,1.183.161c.129.071.455.255.839.473l1.185.677a1.116,1.116,0,0,0,1.148-.024c.058-.036.145-.085.25-.141l.352-.185a13.544,13.544,0,0,0,1.949-1.163,2.5,2.5,0,0,0,1-1.334,1.539,1.539,0,0,0-.235-1.264l-.027-.037-.029-.036-.24-.291-.24-.291a3.633,3.633,0,0,1,1.207-.432,8.914,8.914,0,0,1,2.159-.165l.2.007.194.006c.163.005.352.011.527.021a3.366,3.366,0,0,1,.438.047c0,.013,0,.028.005.044s0,.035,0,.055l-.209.65-.209.65-.007.023-.008.023a1.117,1.117,0,0,0,.056.824,2.786,2.786,0,0,0,.715.923,3.493,3.493,0,0,0,1.5.718,9.725,9.725,0,0,0,4.664-.42,12.657,12.657,0,0,0,3.909-1.864,1.108,1.108,0,0,0,.2-.2.834.834,0,0,1,.456-.3,1.224,1.224,0,0,1,.5-.027,1.072,1.072,0,0,1,.374.131.56.56,0,0,1,.255.289,1.147,1.147,0,0,0,.048.116,1.111,1.111,0,0,0,.061.11c.132.211.254.394.365.556s.211.3.3.427c.064.089.132.184.189.268a1.675,1.675,0,0,1,.122.2,1.639,1.639,0,0,1-.09.34q-.083.245-.242.637a1.112,1.112,0,0,0-.08.361c-.028.548-.066,1.158-.1,1.663s-.074.9-.1,1.031a1.278,1.278,0,0,0,.005.634,1.3,1.3,0,0,0,.906.9,3.561,3.561,0,0,0,1.7-.048,1.137,1.137,0,0,0,.243-.082q.33-.157.607-.292l.5-.246c.386-.191.659-.325.87-.414a1.6,1.6,0,0,1,.495-.143,3.557,3.557,0,0,1,1.007.06,4.017,4.017,0,0,1,.988.355,6.073,6.073,0,0,1,.97.587,4.813,4.813,0,0,1,.526.473,3.571,3.571,0,0,0,.66.557,2.9,2.9,0,0,0,1.124.391c.984.151,1.732.244,2.311.305s.988.089,1.294.111c.175.012.306.022.4.032a.894.894,0,0,1,.2.035,1.766,1.766,0,0,1,.266.146c.12.075.272.175.456.3s.4.264.667.435.58.37.954.6H317.942a10.217,10.217,0,0,0,.27-1.025c.128-.562.3-1.392.545-2.635a1.117,1.117,0,0,0-.267-.962,2.32,2.32,0,0,1-.544-1.378,2.278,2.278,0,0,1,.342-1.432Zm49.626,10.194a5.423,5.423,0,0,0-.654-1.479,4.043,4.043,0,0,0-1-1.066l0,0,0,0a5.1,5.1,0,0,0-.938-.533c-.32-.143-.645-.26-.964-.376-.26-.094-.523-.189-.787-.3a6.083,6.083,0,0,1-.784-.39h0c-.6-.362-1.088-.662-1.479-.911s-.692-.446-.931-.6a6.19,6.19,0,0,0-1.162-.666,4.247,4.247,0,0,0-1.231-.2c-.289-.02-.675-.047-1.224-.1s-1.26-.147-2.2-.291a.7.7,0,0,1-.269-.072,1.62,1.62,0,0,1-.273-.246,6.894,6.894,0,0,0-.717-.644,8.276,8.276,0,0,0-1.359-.835,6.241,6.241,0,0,0-1.557-.548,5.808,5.808,0,0,0-1.607-.1,3.467,3.467,0,0,0-1.017.241c-.343.132-.711.315-1.17.542l-.309.153-.342.167c.021-.266.039-.545.056-.816s.032-.533.044-.765a4.141,4.141,0,0,0,.42-1.848,3.2,3.2,0,0,0-.721-1.552c-.078-.109-.16-.224-.249-.352s-.183-.269-.285-.429a2.773,2.773,0,0,0-.907-1.158,3.207,3.207,0,0,0-1.43-.6,3.391,3.391,0,0,0-1.656.146,3.067,3.067,0,0,0-1.322.9,10.984,10.984,0,0,1-3.132,1.423,7.561,7.561,0,0,1-3.462.363,1.968,1.968,0,0,1-.276-.083,1.193,1.193,0,0,1-.192-.095l.153-.476.153-.477a1.122,1.122,0,0,0,.053-.324,2.947,2.947,0,0,0-.268-1.371,1.925,1.925,0,0,0-.847-.859,2.8,2.8,0,0,0-.936-.279,10.548,10.548,0,0,0-1.084-.07l-.185-.006-.192-.007a11.036,11.036,0,0,0-3.016.285,4.156,4.156,0,0,0-2.351,1.319,2.075,2.075,0,0,0-.4.921,2.1,2.1,0,0,0,.091,1,1.115,1.115,0,0,0,.2.355l.193.233.193.233a8.831,8.831,0,0,1-.824.51c-.295.165-.577.313-.75.4l-.078.041-.076.04-1.029-.585c-.3-.172-.538-.3-.6-.335l-.048-.023-.049-.02a4.482,4.482,0,0,0-2.682-.245,3.361,3.361,0,0,0-1.99,1.4,4.443,4.443,0,0,0-.741,2.544,4.7,4.7,0,0,0,.764,2.555c-.076.383-.156.772-.232,1.135s-.148.7-.211.979a9.936,9.936,0,0,0-2.065.169,4.031,4.031,0,0,0-1.43.553,1.734,1.734,0,0,0-.594.687,3.112,3.112,0,0,0-.283,1.072h0a6.43,6.43,0,0,0-.025.844c.009.281.031.552.06.78a5.515,5.515,0,0,0-.465,1.054,4.531,4.531,0,0,0-.224,1.37,3.806,3.806,0,0,0,.608,2.136,4.3,4.3,0,0,0,1.778,1.484,1.745,1.745,0,0,0,1.142.1,14.616,14.616,0,0,0,1.837-.523l.182-.06.191-.062a3.644,3.644,0,0,0,2.708,1.391,6.276,6.276,0,0,0,2.655-.391c.109-.039.223-.078.336-.115s.228-.072.337-.1a8.657,8.657,0,0,0,.651,1.858,2.929,2.929,0,0,0,1.44,1.441c.189.081.859.345,1.509.6s1.278.5,1.382.537c.273.105.507.188.709.256s.371.12.513.164c.114.035.212.065.3.1s.165.058.237.091a2.941,2.941,0,0,1,.39.2.989.989,0,0,1,.16.123c0,.032-.01.075-.018.12s-.017.092-.025.13a3.249,3.249,0,0,0-.081.813,1.934,1.934,0,0,0,.351,1.027,2.6,2.6,0,0,0,.889.771,6.825,6.825,0,0,0,1.521.588l.21.069.21.069c.02.064.043.152.067.271s.049.269.072.455h0a15.331,15.331,0,0,1,.086,1.983,10.387,10.387,0,0,1-.077,1.289,1.117,1.117,0,0,0-.027.188,1.1,1.1,0,0,0,.005.19,2.631,2.631,0,0,0,.386,1.021c.347.674,1.02,1.845,2.345,4,.4.645.795,1.283,1.153,1.854s.677,1.076.916,1.453c-.437.543-.969,1.269-1.453,1.947s-.917,1.309-1.154,1.662a2.827,2.827,0,0,0,1.3,4.209c.273.108.551.216.818.319l.751.287.379.144.308.119.076.074.079.078a10.852,10.852,0,0,0,1.253,1.108,1.937,1.937,0,0,0,1.11.42h.043l.044,0a1.28,1.28,0,0,0,.512-.141,1.259,1.259,0,0,0,.406-.337l.024-.032.023-.033.921-1.353.921-1.353.431-.512.431-.512.531-.632.531-.632.03-.037.028-.038.092-.13.092-.13a8.314,8.314,0,0,0,1.093-1.807,6.063,6.063,0,0,0,.25-1.875q0-.08.007-.165c0-.057,0-.116.008-.176.534-.521,1.082-1.05,1.529-1.475s.794-.748.927-.856a8.282,8.282,0,0,1,2.082-.912,9.441,9.441,0,0,1,1.582-.264,7.641,7.641,0,0,0,1.486-.256,4.081,4.081,0,0,0,1.542-.874,7.859,7.859,0,0,0,1.449-1.812,26.5,26.5,0,0,0,1.577-3.109c.075-.169.182-.438.321-.8s.308-.83.509-1.389c.027-.075.053-.152.081-.234s.055-.169.084-.263h0a11.887,11.887,0,0,0,.322-1.3,11.663,11.663,0,0,0,.173-1.318c.019-.252.03-.422.038-.543s.011-.2.014-.254.005-.1.013-.195.024-.245.054-.534c.1-.2.34-.6.653-1.075s.7-1.039,1.1-1.552l.816-1.056.816-1.056.008-.011.008-.011.238-.322.238-.319a21.357,21.357,0,0,0,1.72-2.543,5.8,5.8,0,0,0,.793-2.76,3.482,3.482,0,0,0-.063-.637c-.037-.2-.085-.381-.13-.537Z" transform="translate(0 0)" fill="#dcb168" stroke="#dcb168" stroke-width="1"></path><g id="Grupo_9" data-name="Grupo 9" transform="translate(358.703 337.866)"><path id="Caminho_25" data-name="Caminho 25" d="M630.9,455.459c-.014-.034-.029-.067-.047-.1s-.036-.063-.056-.094-.042-.06-.066-.089a.969.969,0,0,0-.074-.081,1.055,1.055,0,0,0-.17-.138c-.03-.02-.061-.039-.093-.056s-.065-.033-.1-.047-.068-.026-.1-.037-.07-.02-.106-.027a1.1,1.1,0,0,0-.436,0q-.054.011-.106.027t-.1.037c-.033.014-.066.03-.1.047s-.064.036-.094.056-.06.042-.088.065a1.084,1.084,0,0,0-.155.154,1.009,1.009,0,0,0-.065.089,1.063,1.063,0,0,0-.056.094c-.017.032-.033.065-.047.1s-.026.068-.037.1-.019.07-.027.106-.013.072-.017.108a1.041,1.041,0,0,0,0,.218c0,.037.009.073.017.109s.016.071.027.106.023.069.037.1.03.066.047.1.036.063.056.094a1.032,1.032,0,0,0,.065.089q.035.042.073.081c.026.026.053.05.081.074s.058.045.088.066.062.039.094.056.065.033.1.047.068.026.1.037.07.019.106.027a1.127,1.127,0,0,0,.217.021c.037,0,.073,0,.11-.005a1.079,1.079,0,0,0,.109-.016q.054-.011.106-.027c.035-.011.069-.023.1-.037s.066-.029.1-.047.063-.036.093-.056.06-.043.089-.066.055-.048.081-.074a.991.991,0,0,0,.074-.081c.023-.028.045-.058.066-.089s.039-.061.056-.094.033-.065.047-.1.026-.068.037-.1a1.057,1.057,0,0,0,.027-.106,1.1,1.1,0,0,0,.016-.109c0-.037.005-.073.005-.109s0-.073-.005-.109a1.053,1.053,0,0,0-.016-.108q-.011-.054-.027-.106a1.046,1.046,0,0,0-.037-.1Z" transform="translate(-628.453 -454.468)" fill="#dcb168" stroke="#dcb168" stroke-width="1"></path><path id="Caminho_26" data-name="Caminho 26" d="M628.172,455.606c-.046,0-.092,0-.138-.007a1.355,1.355,0,0,1-.139-.021c-.045-.009-.09-.02-.134-.034s-.088-.029-.131-.047-.084-.037-.125-.059-.079-.045-.118-.07-.079-.056-.114-.085a1.379,1.379,0,0,1-.1-.094,1.358,1.358,0,0,1-.094-.1,1.315,1.315,0,0,1-.084-.114c-.024-.036-.048-.076-.069-.116s-.042-.082-.059-.124-.034-.088-.047-.131-.025-.088-.034-.134-.016-.092-.021-.138a1.369,1.369,0,0,1,0-.281c0-.046.012-.092.021-.137s.021-.09.034-.134a1.324,1.324,0,0,1,.047-.131,1.381,1.381,0,0,1,.059-.125,1.348,1.348,0,0,1,.071-.119,1.313,1.313,0,0,1,.082-.112c.03-.036.061-.071.094-.1a1.353,1.353,0,0,1,.1-.094c.036-.029.073-.057.111-.082s.08-.05.12-.071.082-.041.124-.059.086-.033.131-.047.088-.024.134-.034a1.408,1.408,0,0,1,.556,0c.045.009.09.02.134.034a1.378,1.378,0,0,1,.131.047q.064.027.125.059c.04.022.08.045.118.071a1.287,1.287,0,0,1,.113.083,1.339,1.339,0,0,1,.1.093,1.211,1.211,0,0,1,.094.1c.029.035.057.073.083.111s.05.079.072.12.041.083.059.126.033.086.047.13.025.089.034.134a1.366,1.366,0,0,1,.021.14q.007.069.007.138c0,.046,0,.092-.007.138a1.341,1.341,0,0,1-.021.14c-.009.046-.021.09-.034.134s-.029.087-.046.129-.038.086-.06.126-.045.081-.071.119-.054.077-.083.112a1.258,1.258,0,0,1-.1.106c-.03.03-.064.061-.1.091s-.073.057-.112.083-.079.05-.12.072-.082.041-.125.059-.086.033-.131.047-.088.025-.134.034a1.338,1.338,0,0,1-.14.021C628.265,455.6,628.219,455.606,628.172,455.606Zm0-2.23a.8.8,0,0,0-.158.016c-.026.005-.052.012-.078.02a.742.742,0,0,0-.074.027c-.025.01-.049.022-.073.034s-.048.027-.071.042-.042.029-.062.046a.752.752,0,0,0-.058.053.791.791,0,0,0-.053.059.725.725,0,0,0-.046.063.8.8,0,0,0-.042.07.785.785,0,0,0-.034.072.776.776,0,0,0-.027.076.787.787,0,0,0-.02.078.771.771,0,0,0-.012.079.737.737,0,0,0,0,.156c0,.027.007.054.012.081s.012.051.019.076.017.051.027.077.021.047.034.07.026.046.041.068a.738.738,0,0,0,.047.065q.025.031.053.058c.019.019.039.037.06.054s.044.034.067.05.042.026.066.039.048.024.073.035a.79.79,0,0,0,.075.027q.038.012.077.02a.748.748,0,0,0,.078.011.822.822,0,0,0,.16,0,.706.706,0,0,0,.078-.011c.026-.005.052-.012.078-.02a.741.741,0,0,0,.074-.027c.025-.01.049-.022.073-.034s.046-.026.068-.041.044-.031.064-.048a.788.788,0,0,0,.06-.054.745.745,0,0,0,.054-.059.818.818,0,0,0,.049-.066c.014-.021.028-.044.04-.067s.024-.048.034-.072.019-.049.027-.075a.784.784,0,0,0,.019-.077c.005-.026.009-.052.011-.078s0-.054,0-.081,0-.054,0-.081a.764.764,0,0,0-.011-.077c-.005-.026-.012-.052-.02-.078s-.016-.05-.026-.074v0a.788.788,0,0,0-.034-.072.738.738,0,0,0-.04-.067c-.015-.023-.031-.045-.048-.065a.679.679,0,0,0-.051-.056.8.8,0,0,0-.061-.055.712.712,0,0,0-.063-.046c-.024-.016-.047-.03-.07-.042s-.048-.024-.072-.034a.758.758,0,0,0-.074-.027c-.026-.008-.052-.014-.078-.02A.794.794,0,0,0,628.173,453.376Z" transform="translate(-626.755 -452.772)" fill="#dcb168" stroke="#dcb168" stroke-width="1"></path></g><g id="Grupo_10" data-name="Grupo 10" transform="translate(335.332 344.546)"><path id="Caminho_27" data-name="Caminho 27" d="M476.2,499.675q-.021-.05-.047-.1c-.017-.032-.036-.064-.056-.094s-.042-.06-.065-.088a1.037,1.037,0,0,0-.073-.082c-.026-.026-.053-.05-.081-.073a1.026,1.026,0,0,0-.089-.065,1.089,1.089,0,0,0-.094-.056c-.032-.017-.066-.033-.1-.047s-.068-.026-.1-.037-.07-.019-.106-.027a1.1,1.1,0,0,0-.436,0c-.036.007-.071.016-.105.027s-.069.023-.1.037-.066.03-.1.047-.063.036-.093.056a1.033,1.033,0,0,0-.089.065c-.028.023-.056.048-.082.073a1.022,1.022,0,0,0-.073.081c-.023.029-.045.058-.065.088s-.039.062-.056.094-.033.065-.047.1a1.081,1.081,0,0,0-.037.1q-.016.052-.027.106t-.017.109a1.044,1.044,0,0,0,0,.219c0,.036.009.073.017.109s.016.071.027.106a1.06,1.06,0,0,0,.037.1c.014.033.029.066.047.1s.036.064.056.094.042.059.065.088.047.056.073.082.054.05.082.073a1.062,1.062,0,0,0,.089.065c.03.02.061.039.093.056s.065.033.1.047.068.026.1.037.07.019.105.027.073.013.109.016a1.07,1.07,0,0,0,.219,0c.036,0,.073-.009.108-.016s.071-.016.106-.027a1.061,1.061,0,0,0,.1-.037c.034-.014.067-.03.1-.047s.064-.036.094-.056a1.054,1.054,0,0,0,.089-.065q.042-.035.081-.073t.073-.082c.023-.028.045-.058.065-.088s.039-.062.056-.094.033-.065.047-.1a1.074,1.074,0,0,0,.037-.1c.011-.035.02-.07.027-.106s.013-.072.017-.109a1.038,1.038,0,0,0,0-.219q-.006-.055-.017-.109c-.007-.036-.016-.071-.027-.106s-.023-.069-.037-.1Z" transform="translate(-473.754 -498.684)" fill="#dcb168" stroke="#dcb168" stroke-width="1"></path><path id="Caminho_28" data-name="Caminho 28" d="M473.475,499.822a1.362,1.362,0,0,1-.141-.007c-.045,0-.091-.011-.137-.021s-.091-.021-.134-.034-.087-.029-.13-.046-.085-.038-.126-.06-.081-.046-.119-.071a1.379,1.379,0,0,1-.112-.082c-.035-.029-.07-.06-.1-.092s-.067-.072-.1-.107-.055-.071-.08-.107-.052-.083-.073-.123-.041-.082-.059-.125-.033-.086-.047-.131-.025-.089-.034-.134-.016-.092-.021-.138a1.33,1.33,0,0,1,0-.281c0-.046.012-.092.021-.137s.021-.091.034-.135.029-.088.047-.131.037-.084.059-.125.045-.079.07-.118.055-.078.083-.113a1.32,1.32,0,0,1,.094-.105c.035-.034.069-.065.105-.094a1.357,1.357,0,0,1,.114-.083c.036-.024.076-.048.116-.069s.083-.042.125-.059.087-.033.131-.047.089-.025.133-.034a1.413,1.413,0,0,1,.556,0c.046.009.09.021.134.034s.089.029.131.047.084.037.124.059.082.046.12.071a1.349,1.349,0,0,1,.112.082,1.368,1.368,0,0,1,.2.2c.029.036.057.073.082.111s.05.08.071.12.041.082.059.125.033.086.047.131.025.089.034.134.016.092.021.138a1.358,1.358,0,0,1,.007.141,1.32,1.32,0,0,1-.007.14q-.007.068-.021.137c-.009.046-.021.09-.034.134a1.357,1.357,0,0,1-.047.131c-.018.042-.037.084-.059.124s-.045.079-.07.118-.055.077-.084.113-.06.069-.091.1a1.414,1.414,0,0,1-.106.1,1.364,1.364,0,0,1-.114.084c-.036.024-.076.048-.118.07s-.083.041-.124.059a1.347,1.347,0,0,1-.131.047c-.044.013-.089.025-.133.034s-.092.016-.139.021A1.379,1.379,0,0,1,473.475,499.822Zm0-2.231a.81.81,0,0,0-.159.016c-.025.005-.051.012-.077.02s-.051.017-.076.027-.047.021-.071.034-.046.026-.068.041a.772.772,0,0,0-.065.048c-.022.018-.042.036-.061.055a.705.705,0,0,0-.049.056c-.018.022-.035.045-.051.069s-.026.042-.039.066-.024.048-.035.073a.761.761,0,0,0-.026.074q-.012.039-.02.078c-.005.026-.009.053-.012.08a.786.786,0,0,0,0,.079.766.766,0,0,0,0,.077q0,.04.012.081c.005.026.012.052.02.077s.017.05.027.074.022.049.035.073.027.048.042.071.029.041.047.063.035.041.054.061.035.033.056.05a.752.752,0,0,0,.064.047c.024.016.047.03.071.042s.047.024.072.034.049.019.075.027.051.014.078.02.052.009.079.012a.761.761,0,0,0,.157,0c.027,0,.053-.007.079-.012s.052-.012.078-.02.05-.016.074-.027.05-.022.074-.035a.764.764,0,0,0,.068-.04.714.714,0,0,0,.065-.047.733.733,0,0,0,.059-.053c.017-.018.036-.038.053-.059s.033-.042.048-.064.027-.044.04-.069.024-.048.035-.073.019-.049.027-.074.014-.052.02-.078.009-.053.012-.08a.74.74,0,0,0,0-.077.759.759,0,0,0,0-.079c0-.027-.007-.054-.012-.081s-.012-.052-.02-.077a.788.788,0,0,0-.027-.074c-.01-.025-.022-.049-.034-.073s-.027-.048-.042-.071-.03-.042-.047-.063a.753.753,0,0,0-.052-.058.77.77,0,0,0-.059-.053.739.739,0,0,0-.063-.046.77.77,0,0,0-.07-.042c-.024-.013-.048-.024-.073-.035s-.049-.019-.074-.027-.052-.014-.078-.02A.8.8,0,0,0,473.474,497.591Z" transform="translate(-472.056 -496.987)" fill="#dcb168" stroke="#dcb168" stroke-width="1"></path></g></g></svg>