<svg xmlns="http://www.w3.org/2000/svg" width="147.183" height="27.008" viewBox="0 0 147.183 27.008"><g id="g19" transform="translate(-0.035 0.006)"><path id="path6" d="M1099.718,198.037l5.011-2.082a2.171,2.171,0,0,0-2.079-1.189,3.075,3.075,0,0,0-2.932,3.27m5.88,2.016,1.91,1.273a5.573,5.573,0,0,1-4.67,2.484,5.421,5.421,0,0,1-5.483-5.6,5.266,5.266,0,0,1,5.207-5.606,5.207,5.207,0,0,1,4.8,3.568l.254.637-7.495,3.1a2.852,2.852,0,0,0,2.719,1.7,3.206,3.206,0,0,0,2.76-1.549m-12.145,3.418h2.462V187h-2.462Zm-4.018-5.246a3.16,3.16,0,0,0-2.995-3.418,3.41,3.41,0,0,0,0,6.8A3.134,3.134,0,0,0,1089.435,198.225Zm2.164-5.285V203c0,4.139-2.44,5.839-5.328,5.839a5.338,5.338,0,0,1-4.967-3.312l2.145-.893a3.1,3.1,0,0,0,2.825,1.995c1.847,0,2.995-1.145,2.995-3.29v-.806h-.085a3.819,3.819,0,0,1-2.951,1.273,5.61,5.61,0,0,1,0-11.211,3.88,3.88,0,0,1,2.951,1.252h.085v-.913S1091.6,192.941,1091.6,192.941Zm-26.873,5.265a3.118,3.118,0,1,0-3.106,3.4,3.2,3.2,0,0,0,3.106-3.4m2.416,0a5.525,5.525,0,1,1-5.524-5.6,5.487,5.487,0,0,1,5.524,5.6m9.966,0a3.118,3.118,0,1,0-3.106,3.4,3.2,3.2,0,0,0,3.106-3.4m2.418,0a5.525,5.525,0,1,1-5.524-5.6,5.487,5.487,0,0,1,5.524,5.6m-32.9,5.6a8.706,8.706,0,1,1,0-17.41,8.291,8.291,0,0,1,5.967,2.4l-1.678,1.678a6.062,6.062,0,0,0-4.29-1.7,6.327,6.327,0,0,0,0,12.653,5.834,5.834,0,0,0,4.4-1.741,4.949,4.949,0,0,0,1.3-2.992h-5.691v-2.377h8a7.571,7.571,0,0,1,.128,1.486,7.866,7.866,0,0,1-2.058,5.563,7.977,7.977,0,0,1-6.076,2.438" transform="translate(-1012.643 -181.894)" fill="#5f6368" fill-rule="evenodd"></path><g id="flowRoot2998" transform="translate(100.787 6.797)"><path id="path3911" d="M4546.091,1806.482v-14.626h1.879l5.086,8.906h.082l5.086-8.906h1.879v14.626h-1.879V1797.8l.082-2.451h-.082l-4.576,8.028h-1.1l-4.576-8.028h-.082l.082,2.451v8.682Z" transform="translate(-4546.091 -1791.856)" fill="#63666a"></path><path id="path3913" d="M5213.074,1979.722a3.952,3.952,0,0,1-2.666-.919,3.039,3.039,0,0,1-1.072-2.431,3,3,0,0,1,1.266-2.564,5.131,5.131,0,0,1,3.125-.929,5.375,5.375,0,0,1,2.717.613v-.286a2.241,2.241,0,0,0-.756-1.767,2.727,2.727,0,0,0-1.859-.664,2.915,2.915,0,0,0-1.481.388,2,2,0,0,0-.909,1.062l-1.716-.735a3.878,3.878,0,0,1,1.369-1.665,4.4,4.4,0,0,1,2.7-.766,4.654,4.654,0,0,1,3.187,1.123,4,4,0,0,1,1.266,3.166v6.046h-1.8v-1.389h-.082A3.684,3.684,0,0,1,5213.074,1979.722Zm.307-1.716a3.046,3.046,0,0,0,2.114-.868,2.7,2.7,0,0,0,.95-2.053,3.687,3.687,0,0,0-2.39-.654,3.089,3.089,0,0,0-2.063.592,1.794,1.794,0,0,0-.694,1.389,1.345,1.345,0,0,0,.633,1.164A2.523,2.523,0,0,0,5213.38,1978.006Z" transform="translate(-5193.28 -1964.769)" fill="#63666a"></path><path id="path3915" d="M5666.492,1979.722a4.236,4.236,0,0,1-2.053-.49,3.465,3.465,0,0,1-1.358-1.226H5663l.082,1.389v4.412H5661.2v-14.421h1.8v1.389h.082a3.465,3.465,0,0,1,1.358-1.226,4.236,4.236,0,0,1,2.053-.49,4.4,4.4,0,0,1,3.35,1.532,5.826,5.826,0,0,1,0,7.6A4.4,4.4,0,0,1,5666.492,1979.722Zm-.307-1.716a2.978,2.978,0,0,0,2.247-.991,4.135,4.135,0,0,0,0-5.25,3.065,3.065,0,0,0-4.5-.01,4.2,4.2,0,0,0,0,5.27A3.01,3.01,0,0,0,5666.186,1978.006Z" transform="translate(-5634.208 -1964.769)" fill="#63666a"></path><path id="path3917" d="M6125.035,1979.722a4.519,4.519,0,0,1-2.768-.817,4.819,4.819,0,0,1-1.6-2.043l1.675-.695a2.768,2.768,0,0,0,2.717,1.879,2.521,2.521,0,0,0,1.44-.388,1.182,1.182,0,0,0,.562-1.021c0-.654-.46-1.093-1.369-1.328l-2.022-.49a4.741,4.741,0,0,1-1.818-.929,2.244,2.244,0,0,1-.858-1.849,2.516,2.516,0,0,1,1.174-2.155,4.733,4.733,0,0,1,2.789-.827,4.67,4.67,0,0,1,2.369.6,3.378,3.378,0,0,1,1.491,1.726l-1.634.674a2.217,2.217,0,0,0-2.288-1.328,2.622,2.622,0,0,0-1.409.347,1.065,1.065,0,0,0-.572.94c0,.572.439.96,1.328,1.164l1.981.47a3.719,3.719,0,0,1,2.083,1.123,2.714,2.714,0,0,1,.674,1.8,2.789,2.789,0,0,1-1.1,2.247A4.4,4.4,0,0,1,6125.035,1979.722Z" transform="translate(-6082.546 -1964.769)" fill="#63666a"></path></g><g id="g842" transform="translate(0.035 -0.006)"><path id="path835" d="M797.6,171.151a26.285,26.285,0,0,1,2.128,3.142,16.459,16.459,0,0,1,1.169,2.963c.237.683.46.891.932.891.516,0,.75-.349.932-.891a16.832,16.832,0,0,1,1.126-2.907,32.514,32.514,0,0,1,3.157-4.464,27.752,27.752,0,0,0,3.13-4.505,10.987,10.987,0,0,0,1.07-4.771,9.478,9.478,0,0,0-1.058-4.408l-3.06.821-1.864,4.895-.46.668-.1.126-.126.153-.208.249-.305.305-1.656,1.348-4.13,2.392Z" transform="translate(-792.412 -151.138)" fill="#34a853"></path><path id="path833" d="M621.2,247.5c1.014,2.309,2.948,4.326,4.27,6.105l7-8.289a3.672,3.672,0,0,1-2.767,1.293,3.581,3.581,0,0,1-3.6-3.588,3.83,3.83,0,0,1,.821-2.322l-4.745,1.266Z" transform="translate(-620.283 -233.593)" fill="#fbbc04"></path><path id="path831" d="M862.933-35.1a9.332,9.332,0,0,1,5.507,4.645l-5.592,6.662a3.883,3.883,0,0,0,.821-2.322,3.621,3.621,0,0,0-3.588-3.588,3.762,3.762,0,0,0-2.781,1.281v-4.2Z" transform="translate(-850.667 35.531)" fill="#4285f4"></path><path id="path829" d="M674-49.535a9.34,9.34,0,0,1,7.19-3.365,9.61,9.61,0,0,1,2.864.431l-5.616,6.676H674.46Z" transform="translate(-671.804 52.9)" fill="#1a73e8"></path><path id="path827" d="M584.217,97.228a10.773,10.773,0,0,1-.917-4.449,9.372,9.372,0,0,1,2.21-6.079l4.437,3.74Z" transform="translate(-583.3 -83.321)" fill="#ea4335"></path></g></g></svg>