<svg xmlns="http://www.w3.org/2000/svg" width="42.163" height="42.163" viewBox="0 0 42.163 42.163"><g id="Grupo_13508" data-name="Grupo 13508" transform="translate(-41.46 -1012.166)"><path id="Bg" d="M1583.081,960h0a21.062,21.062,0,0,1,21.082,21.082h0a21.062,21.062,0,0,1-21.082,21.082h0A21.062,21.062,0,0,1,1562,981.082h0A21.062,21.062,0,0,1,1583.081,960Z" transform="translate(-1520.54 52.166)" fill="#2bfda9"></path><g id="Plus_Icon" data-name="Plus Icon" transform="translate(56.271 1026.759)"><path id="Fill_26" data-name="Fill 26" d="M1587.732,979.279a1.054,1.054,0,0,1,0,2.108h-4.292v4.38a1.033,1.033,0,1,1-2.065,0v-4.38h-4.292a1.054,1.054,0,0,1,0-2.108h4.292V974.9a1.033,1.033,0,1,1,2.065,0v4.38h4.292" transform="translate(-1576.051 -973.845)" fill="#121212"></path></g></g></svg>