<svg height="32" viewBox="0 0 32 32" width="32" xmlns="http://www.w3.org/2000/svg"><path d="m27.267 7.667h-16.667c-2.467 0-4.4 2-4.4 4.4v.333h-1.467v-11.8c0-.333-.333-.6-.667-.6h-3.133c-.333 0-.6.267-.6.6v25.267c0 3.067 2.467 5.467 5.467 5.467h6.733c0 .333.267.6.6.6h7.533c.333 0 .6-.267.6-.6v-4.4c0-.333-.267-.6-.6-.6h-7.467c-.333 0-.6.267-.6.6h-6.133c-.933 0-1.733-.8-1.733-1.733v-8.6h1.467v.267c0 2.467 2 4.4 4.4 4.4h4.933c.933 0 1.667-.733 1.667-1.667v-1.8c0-.467.4-.867.867-.867h1.667c.467 0 .867.4.867.867v1.8c0 .933.733 1.667 1.667 1.667h4.933c2.467 0 4.4-2 4.4-4.4v-4.867c.067-2.4-1.933-4.333-4.333-4.333zm-13.467 23.066v-3.133h6.267v3.133zm-12.2-29.466h1.867v3.4h-1.867zm4.867 27h6.133v1.867h-6.8c-2.333 0-4.2-1.867-4.2-4.2v-20h1.867v19.333c0 1.6 1.333 3 3 3zm-.267-12.867h-1.467v-1.733h1.467zm24.2 1.533c0 1.733-1.4 3.2-3.2 3.2h-4.933c-.2 0-.4-.2-.4-.4v-1.8c0-1.2-.933-2.133-2.133-2.133h-1.667c-1.2 0-2.133.933-2.133 2.133v1.8c0 .2-.2.4-.4.4h-4.933c-1.733 0-3.2-1.4-3.2-3.2v-4.867c0-1.733 1.4-3.2 3.2-3.2h16.6c1.733 0 3.2 1.4 3.2 3.2v4.867zm-21.267-4.133c-.333 0-.6.267-.6.6v2.2c0 .333.267.6.6.6s.6-.267.6-.6v-2.2c0-.333-.267-.6-.6-.6zm8.4-2.867h-5.6c-.333 0-.6.267-.6.6s.267.6.6.6h5.6c.333 0 .6-.267.6-.6s-.267-.6-.6-.6zm4.867 0h-2.133c-.333 0-.6.267-.6.6s.267.6.6.6h2.133c.333 0 .6-.267.6-.6.067-.333-.2-.6-.6-.6zm-5 18.6h-2.133c-.333 0-.6.267-.6.6s.267.6.6.6h2.133c.333 0 .6-.267.6-.6 0-.267-.267-.6-.6-.6z"/></svg>
