<svg height="32" viewBox="0 0 32 32" width="32" xmlns="http://www.w3.org/2000/svg"><path d="m8.218 21.818-.436-2.691 1.964-1.891c.145-.145.218-.436.145-.655s-.291-.364-.509-.436l-2.691-.364-1.164-2.4c-.145-.218-.364-.364-.582-.364s-.436.145-.582.364l-1.164 2.473-2.691.364c-.218 0-.436.218-.509.436s0 .509.145.655l1.964 1.891-.436 2.691c-.073.218.073.509.218.582.073.073.218.145.364.145.073 0 .218 0 .291-.073l2.4-1.236 2.4 1.236c.218.145.436.073.655-.073s.291-.364.218-.655zm-1.527-3.345c-.145.145-.218.364-.145.582l.291 1.745-1.6-.8c-.218-.073-.364-.073-.582 0l-1.527.8.291-1.745c0-.218 0-.436-.145-.582l-1.236-1.236 1.745-.218c.218 0 .364-.145.436-.364l.8-1.6.8 1.6c.073.218.291.291.436.364l1.745.218zm25.309-1.891c-.073-.218-.291-.364-.509-.436l-2.691-.364-1.164-2.4c-.073-.218-.291-.364-.582-.364-.218 0-.436.145-.582.364l-1.164 2.473-2.691.364c-.218 0-.436.218-.509.436s0 .509.145.655l1.964 1.891-.436 2.691c-.073.218.073.509.218.582.218.145.436.145.655.073l2.4-1.236 2.4 1.236c.073.073.218.073.291.073.145 0 .291-.073.364-.145.218-.145.291-.364.218-.582l-.436-2.691 1.964-1.891c.145-.218.218-.436.145-.727zm-3.2 1.891c-.145.145-.218.364-.145.582l.291 1.745-1.6-.8c-.073-.073-.218-.073-.291-.073s-.218 0-.291.073l-1.527.8.291-1.745c0-.218 0-.436-.145-.582l-1.236-1.236 1.745-.218c.218 0 .364-.145.436-.364l.8-1.6.8 1.6c.073.218.291.291.436.364l1.745.218zm-8.291 1.236-.727-4.145 2.982-2.909c.145-.145.218-.436.145-.655s-.291-.364-.509-.436l-4.073-.582-1.818-3.709c-.073-.218-.291-.364-.582-.364s-.436.145-.582.364l-1.818 3.709-4.073.655c-.218 0-.436.218-.509.436s0 .509.145.655l2.982 2.909-.727 4.145c-.073.218.073.509.218.582.218.145.436.145.655.073l3.636-1.964 3.636 1.964c.073.073.218.073.291.073.145 0 .291-.073.364-.145.291-.145.436-.436.364-.655zm-1.454-1.018-2.836-1.527c-.073-.073-.145-.073-.291-.073-.073 0-.218 0-.291.073l-2.836 1.527.509-3.2c0-.218 0-.436-.145-.582l-2.255-2.255 3.2-.436c.218 0 .364-.145.436-.364l1.382-2.909 1.382 2.909c.073.218.291.291.436.364l3.2.436-2.255 2.255c-.145.145-.218.364-.145.582zm-1.673 5.164h-8.727c-.364 0-.655.291-.655.655s.291.655.655.655h8.655c.364 0 .655-.291.655-.655.073-.364-.218-.655-.582-.655zm5.963 0h-2.691c-.364 0-.655.291-.655.655s.291.655.655.655h2.691c.364 0 .655-.291.655-.655-.073-.364-.364-.655-.655-.655z"/></svg>