<svg height="32" viewBox="0 0 32 32" width="32" xmlns="http://www.w3.org/2000/svg"><path d="m28.56 3.12c-1.6-1.92-4.16-3.12-6.8-3.12-.16 0-1.04 0-1.36 0-1.2.08-2 .56-2.64 1.28-1.2 1.6-.96 4.64-.08 9.04.16.96.4 1.76.56 2.48.4 1.6.8 3.04.72 5.36-.08 2.8-.48 4-.72 4.96-.24.72-.4 1.36-.48 2.4-.08 1.92.48 3.52 1.6 4.72 1.04 1.12 2.56 1.68 4.32 1.68 1.44 0 2.72-.56 3.68-1.52 1.2-1.28 1.76-3.28 1.68-5.52 0-.32-.08-.72-.16-1.28-.16-1.28-.4-2.96-.32-4.56.24-3.04.64-4.56 1.04-6 .16-.56.32-1.12.48-1.76.88-4.08-.32-6.72-1.52-8.16zm-9.68 7.04c-.8-3.92-1.12-6.8-.16-8.08.32-.48.88-.72 1.76-.8h.4.88c0 1.2.08 2.4.24 3.52v.08s.08.56.16 1.12c0 .24.08.48.08.72.08.64.32 1.6.4 1.92-.08.32-.32 1.2-.96 2.72-.48 1.2-1.12 2.4-1.68 3.36v-.08c-.08-.32-.24-.96-.32-1.28.72-1.52 1.36-2.96 1.84-4.32.08-.32-.08-.72-.4-.8s-.64.08-.8.4c-.32.96-.72 1.92-1.2 2.88 0-.4-.16-.88-.24-1.36zm6.48 5.36c.56 1.04 1.28 2.16 2.08 3.12v.4c-.08 1.76.16 3.52.32 4.8.08.48.16.88.16 1.2.08 1.92-.4 3.52-1.28 4.56-.72.72-1.6 1.12-2.8 1.12-1.44 0-2.64-.48-3.44-1.28-.88-.88-1.36-2.24-1.28-3.76 0-.88.16-1.44.4-2.08.32-1.04.72-2.4.8-5.28 0-.48 0-.88 0-1.28.24-.48 1.68-2.88 2.64-5.04.16-.4.32-.8.48-1.12.24.72.48 1.44.8 2.08.16.32.48.48.8.32s.48-.48.32-.8c-1.36-3.28-2.08-6.96-2.16-10.96.16 0 .4.08.64.16 0-.08.16 0 .32 0-.08 1.04 0 3.76 1.04 7.44 1.04 3.76 2.16 5.36 2.64 5.92-.08.4-.24.96-.24 1.28 0 .08-.08.24-.08.4-.4-.64-.8-1.28-1.12-1.84-.16-.32-.56-.4-.88-.24-.24.16-.32.56-.16.88zm3.52-4.4c-.16.56-.24 1.12-.4 1.68-.08.16-.08.4-.16.56-.48-.8-1.2-2.32-1.84-4.64-.88-3.12-1.04-5.44-1.04-6.64.88.48 1.6 1.04 2.16 1.76 1.44 1.84 1.92 4.4 1.28 7.28zm-2.64 13.76c.32-.08-.32 0 0 0zm-.08 2.16c.32.08.64-.16.72-.56.08-.32.08-.72 0-1.12 0-.32-.32-.64-.64-.56-.32 0-.64.32-.56.64v.88c-.08.4.16.72.48.72zm-2.56 1.36c-.24 0-.48 0-.72-.08-.32-.08-.64.08-.72.48-.08.32.08.64.48.72.32.08.64.16 1.04.16.8 0 1.44-.24 2-.72.24-.24.32-.64.08-.88s-.64-.32-.88-.08c-.4.32-.8.4-1.28.4zm-12-28.4c-.32 0-1.28 0-1.36 0-2.64 0-5.2 1.2-6.8 3.12-1.2 1.44-2.4 4.08-1.52 8.32.16.64.32 1.2.48 1.76.4 1.36.8 2.96 1.04 6 .08 1.6-.16 3.28-.32 4.56-.08.56-.16.96-.16 1.28-.16 2.24.48 4.24 1.68 5.52.88.88 2.08 1.44 3.6 1.44 1.76 0 3.28-.56 4.32-1.68 1.12-1.2 1.68-2.8 1.6-4.72 0-1.04-.24-1.68-.48-2.4-.32-.96-.64-2.24-.72-4.96-.08-2.32.32-3.68.72-5.36.24-.8.4-1.52.56-2.48.88-4.4 1.12-7.44-.08-9.04-.48-.8-1.36-1.2-2.56-1.36zm-8.08 12.88c-.16-.56-.32-1.12-.4-1.68-.64-2.96-.16-5.44 1.28-7.2.56-.8 1.36-1.36 2.16-1.84 0 1.2-.08 3.52-.96 6.64-.64 2.4-1.36 3.84-1.84 4.64-.08-.16-.16-.4-.24-.56zm8.16 16.56c-.8.88-2 1.28-3.44 1.28-1.12 0-2.08-.4-2.8-1.12-.96-1.04-1.44-2.64-1.28-4.56 0-.24.08-.72.16-1.2.16-1.28.4-3.04.32-4.8 0-.16 0-.32 0-.4.8-1.04 1.52-2.08 2.08-3.12.08-.32 0-.72-.32-.88s-.72-.08-.88.24c-.32.64-.72 1.2-1.12 1.84 0-.16-.08-.32-.08-.4-.08-.24-.16-.88-.24-1.28.48-.56 1.6-2.24 2.64-5.92s1.12-6.32 1.04-7.44c.24 0 .4-.08.56-.16.24 0 .48-.08.64-.08-.08 4-.8 7.68-2.16 10.96-.16.32 0 .72.32.8.32.16.64 0 .8-.32.32-.64.56-1.36.8-2.08.16.32.24.72.48 1.12.96 2.24 2.32 4.56 2.64 5.04v1.28c.08 2.96.48 4.24.8 5.28.24.72.4 1.2.4 2.08 0 1.6-.48 2.88-1.36 3.84zm1.44-19.28c-.08.48-.24.96-.32 1.36-.48-1.04-.48-1.12-.72-1.68-.08-.24-.16-.24-.48-1.2-.08-.32-.48-.48-.8-.4s-.48.48-.4.8c.48 1.36 1.12 2.8 1.84 4.32-.08.32-.24 1.04-.32 1.28v.08c-.48-.96-1.2-2.16-1.68-3.36-.64-1.52-.88-2.4-.96-2.72.08-.4.32-1.28.4-1.92.08-.24.08-.48.16-.8.08-.56.16-1.04.16-1.12v-.08c.16-1.12.24-2.32.24-3.52h.88.4c.8.08 1.36.32 1.76.8.88 1.28.56 4.16-.16 8.16zm-1.04-.32c.24.56-.08-.24 0 0zm-2.16 18c-.48.4-1.2.64-2 .64-.32 0-.64.32-.64.64s.24.64.64.64c1.12 0 2.08-.32 2.8-.96.24-.24.32-.64.08-.88s-.64-.24-.88-.08zm1.52-3.12c-.32 0-.64.32-.64.64s0 .56-.08.88.16.64.48.72 0 0 0 0c.32.08.64-.16.72-.48s.08-.72.08-1.12c.08-.32-.24-.64-.56-.64zm-.16 2.24c-.32-.08 0 0 0 0z"/></svg>
