<svg height="32" viewBox="0 0 32 32" width="32" xmlns="http://www.w3.org/2000/svg"><path d="m31.733 16.133-3.6-2.333c-.133-.067-.267-.133-.333-.133h-9.133v-3.933h9.133c.133 0 .267-.067.333-.133l3.6-2.333c.133-.067.267-.267.267-.467s-.133-.4-.267-.533l-3.6-2.333c-.133-.067-.2-.133-.333-.133h-9.133v-2.867c0-.333-.267-.6-.667-.6h-4c-.4 0-.667.267-.667.6v7.867h-9.133c-.133 0-.267.067-.333.133l-3.6 2.333c-.133.133-.267.333-.267.533s.133.4.267.533l3.6 2.333c.133.067.2.133.333.133h9.133v5.733c0 .333.267.6.6.6s.6-.267.6-.6v-18.933h2.8v28.867h-2.8v-2.933c0-.333-.267-.6-.6-.6s-.6.2-.6.533v3.6c0 .333.267.6.6.6h4.067c.333 0 .6-.267.6-.6v-11.467h9.133c.133 0 .267-.067.333-.133l3.6-2.333c.2-.133.267-.333.267-.533.067-.133-.067-.333-.2-.467zm-13-11.066h8.867l2.667 1.733-2.667 1.733h-8.867v-3.467zm-5.4 8.466h-8.933l-2.667-1.733 2.667-1.733h8.933v3.467zm14.267 4.867h-8.867v-3.467h8.867l2.667 1.733-2.667 1.733zm-13.6 7.267c.333 0 .6-.267.6-.6v-2.133c0-.333-.267-.6-.6-.6s-.667.267-.667.6v2.133c0 .333.267.6.667.6zm-6.6-13.734h4.667c.333 0 .6-.267.6-.6s-.267-.6-.6-.6h-4.667c-.333 0-.6.267-.6.6-.067.333.2.6.6.6zm-2.467 0h.533c.333 0 .6-.267.6-.6s-.267-.6-.6-.6h-.533c-.333 0-.6.267-.6.6s.267.6.6.6zm19.667-6.266h-4.667c-.333 0-.6.267-.6.6s.267.6.6.6h4.667c.333 0 .6-.267.6-.6.067-.333-.2-.6-.6-.6zm2.467 0h-.533c-.333 0-.6.267-.6.6s.267.6.6.6h.533c.333 0 .6-.267.6-.6s-.267-.6-.6-.6zm-2.467 9.866h-4.667c-.333 0-.6.267-.6.6s.267.6.6.6h4.667c.333 0 .6-.267.6-.6.067-.333-.2-.6-.6-.6zm2.467 0h-.533c-.333 0-.6.267-.6.6s.267.6.6.6h.533c.333 0 .6-.267.6-.6s-.267-.6-.6-.6z"/></svg>