<svg height="32" viewBox="0 0 32 32" width="32" xmlns="http://www.w3.org/2000/svg"><path d="m28.8 17-2.667-.8v-8c0-.333-.267-.6-.6-.6h-7.067v-4.333c0-.333-.267-.6-.6-.6h-3.6c-.333 0-.6.267-.6.6v4.333h-7.133c-.333 0-.6.267-.6.6v8l-2.667.8c-.267.067-.467.333-.467.6 0 2.6 1.6 6.067 4.733 10.467h-2.533c-.333 0-.6.267-.6.6s.267.6.6.6h18.267c.2 0 .4-.067.533-.267 3.6-4.867 5.467-8.667 5.467-11.467-.067-.2-.2-.467-.467-.533zm-13.933-13.067h2.333v.6h-.867c-.333 0-.6.267-.6.6s.267.6.6.6h.867v1.867h-2.333zm-7.667 4.934h17.733v6.933l-8.667-2.533c-.133-.067-.267 0-.333 0l-8.667 2.533v-6.933zm15.8 19.2h-6.333v-6.067c0-.333-.267-.6-.6-.6s-.6.267-.6.6v6.067h-6.333c-3.067-4.133-4.8-7.6-5-10l11.867-3.533 11.933 3.533c-.2 2.4-1.867 5.867-4.933 10zm-20.8 0h-1.6c-.333 0-.6.267-.6.6 0 .4.267.667.6.667h1.6c.333 0 .6-.267.6-.6.067-.4-.2-.667-.6-.667zm25.667 0h-1.2c-.333 0-.6.267-.6.6s.267.6.6.6h1.2c.333 0 .6-.267.6-.6s-.267-.6-.6-.6zm3.533 0h-.733c-.333 0-.6.267-.6.6s.267.6.6.6h.733c.333 0 .6-.267.6-.6s-.267-.6-.6-.6zm-16-11.267v2.2c0 .333.267.6.6.6s.6-.267.6-.6v-2.2c0-.333-.267-.6-.6-.6s-.6.267-.6.6zm-5.867-6.467c-.4 0-.733.333-.733.733s.333.733.733.733.733-.333.733-.733-.333-.733-.733-.733zm3.267 0c-.4 0-.733.333-.733.733s.333.733.733.733.733-.333.733-.733c.067-.4-.267-.733-.733-.733zm6.4 1.534c.4 0 .733-.333.733-.733s-.333-.733-.733-.733-.733.333-.733.733.333.733.733.733zm-2.467-.734c0-.4-.333-.733-.733-.733s-.733.333-.733.733.333.733.733.733.733-.333.733-.733zm5.8.734c.4 0 .733-.333.733-.733s-.333-.733-.733-.733-.733.333-.733.733.333.733.733.733zm-3.2 6.866 5.133 1.533h.2c.267 0 .533-.2.6-.467.067-.333-.067-.667-.4-.8l-5.133-1.533c-.333-.067-.667.067-.8.4-.133.4.067.733.4.867z"/></svg>
