<svg height="32" viewBox="0 0 32 32" width="32" xmlns="http://www.w3.org/2000/svg"><path d="m14.12 5.04c0-1.4-1.12-2.52-2.52-2.52s-2.52 1.12-2.52 2.52 1.12 2.52 2.52 2.52 2.52-1.12 2.52-2.52zm-4.08 0c0-.88.72-1.56 1.56-1.56.88 0 1.56.72 1.56 1.56 0 .88-.72 1.56-1.56 1.56-.84.04-1.56-.68-1.56-1.56zm9.28 13.4c-.16.2-.4.32-.68.32-.24 0-.52-.12-.68-.32s-.48-.2-.68-.04-.2.48-.04.68c.36.4.84.64 1.4.64.52 0 1.04-.24 1.4-.64.16-.2.16-.48-.04-.68-.24-.16-.52-.16-.68.04zm7.84-12.28c-1.4 0-2.52 1.12-2.52 2.52s1.12 2.52 2.52 2.52 2.52-1.12 2.52-2.52-1.16-2.52-2.52-2.52zm0 4.08c-.88 0-1.56-.72-1.56-1.56 0-.88.72-1.56 1.56-1.56.88 0 1.56.72 1.56 1.56 0 .88-.68 1.56-1.56 1.56zm-4.16 8.52v-.76c0-.24-.2-.48-.48-.48-.24 0-.48.2-.48.48v.76c0 .24.2.48.48.48s.48-.2.48-.48zm-18.16-4.04c-1.4 0-2.52 1.12-2.52 2.52s1.12 2.52 2.52 2.52 2.52-1.12 2.52-2.52-1.12-2.52-2.52-2.52zm0 4.12c-.88 0-1.56-.72-1.56-1.56 0-.88.72-1.56 1.56-1.56.88 0 1.56.72 1.56 1.56s-.68 1.56-1.56 1.56zm27.16-10.16c0-2.68-2.16-4.84-4.84-4.84-1.68 0-3.12.84-4 2.12-.48-.32-.96-.6-1.44-.88-.24-.12-.52-.04-.64.2s-.04.52.2.64c.48.24.96.56 1.44.88-.24.6-.4 1.24-.4 1.88 0 1.44.48 3.08 1.36 4.6.12.76.2.76.56 3.08.4 2.48.68 4.12 3.24 4.88.12.04.2.08.28.12-.36 1.28-.96 2.52-1.68 3.6-1.52-.36-3.56-.48-5.16.8-1.48 1.2-2 3.04-2 4.52-1.2.36-2.48.56-3.8.56-1.28 0-2.52-.16-3.72-.52 0-2.52 1.92-7.04.36-9.68-.44-.72-1.24-1.2-2.4-1.48.16-.68.28-1.32.28-1.96 0-.84-.2-1.6-.56-2.32.76.32 1.52.72 2.28 1 2.28.84 3.88-.6 4.88-2.84.76-1.64-.72-2.16-1.6-2.76 1.12-1.72 1.8-3.64 1.8-5.32 0-.2 0-.4-.04-.6.96.08 1.92.28 2.8.6.24.08.52-.04.6-.32.08-.24-.04-.52-.32-.6-1.08-.36-2.2-.56-3.32-.64-.6-1.8-2.44-3.2-4.56-3.2-2.68 0-4.84 2.16-4.84 4.84 0 .36.04.72.08 1.12-2.52 1.84-4.36 4.48-5.24 7.48-1 .88-1.6 2.16-1.6 3.6 0 1.8.76 3.92 2.08 5.72.8 1.96 2.04 3.72 3.6 5.16.2.16.48.16.68-.04.16-.2.16-.48-.04-.68-.84-.8-1.6-1.68-2.24-2.64.96.32 2.04.04 2.72-.72 1.04-1.16 1.88-2.56 2.36-3.92.96.2 1.56.52 1.88 1.04 1.24 2.12-.36 6.28-.48 8.88-.88-.32-1.72-.76-2.52-1.28-.2-.16-.52-.08-.64.12-.16.2-.08.52.12.64 2.28 1.48 4.92 2.28 7.64 2.28 3.76 0 7.32-1.48 10-4.16 3.28-3.32 4.64-7.84 3.96-12.2 1.76-2 2.88-4.6 2.88-6.76zm-20.4-7.56c2.16 0 3.92 1.76 3.92 3.92 0 1.92-1.04 4.32-2.68 6.16-.64.72-1.8.72-2.44 0-1.64-1.8-2.68-4.24-2.68-6.16 0-2.16 1.72-3.92 3.88-3.92zm-4.52 6.08c.44 1.6 1.36 3.28 2.6 4.64.84.92 1.96.88 1.92.88.72 0 1.44-.32 1.92-.88.2-.24.4-.48.6-.72.16.12.36.2.52.32.88.52 1.04.68.76 1.28-.36.8-1.44 3.16-3.72 2.32-1.16-.44-2.48-1.2-3.68-1.44-.84-.76-1.96-1.2-3.2-1.2-.72 0-1.36.16-1.96.44.92-2.24 2.36-4.2 4.24-5.64zm-1 16.2c-.64.72-1.8.72-2.44 0-1.64-1.8-2.72-4.24-2.72-6.16 0-2.16 1.76-3.92 3.92-3.92s3.92 1.76 3.92 3.92c0 1.92-1.08 4.36-2.68 6.16zm13.8 6.56c.08-1.16.52-2.56 1.64-3.44 1-.8 2.36-1.04 4-.72-1.44 1.84-3.4 3.32-5.64 4.16zm8.16-9.52c-.08-.04-.16-.08-.24-.08-2.28-.68-2.2-2.04-2.76-5.16.08.08.16.16.24.28.76.84 2 1.12 3 .6.16 1.48.08 2.92-.24 4.36zm-2.12-5.6c-1.64-1.8-2.68-4.24-2.68-6.16 0-2.16 1.76-3.92 3.92-3.92s3.92 1.76 3.92 3.92c0 1.92-1.04 4.32-2.68 6.16-.68.72-1.8.72-2.48 0zm-11.64 3.16v.76c0 .24.2.48.48.48.24 0 .48-.2.48-.48v-.76c0-.24-.2-.48-.48-.48-.28.04-.48.24-.48.48z"/></svg>