<svg height="32" viewBox="0 0 32 32" width="32" xmlns="http://www.w3.org/2000/svg"><path d="m32 14-3.68-11.2c-.08-.32-.48-.48-.8-.4l-27.12 8.72c-.32.08-.48.48-.4.8l1.76 5.28v11.76c0 .4.32.64.64.64h28.48c.32 0 .64-.24.64-.64v-11.76c0-.32-.24-.64-.64-.64h-4.88l5.6-1.76c.32-.08.48-.48.4-.8zm-1.76 3.84v10.56h-27.2v-10.56h3.44v6.88c0 .32.32.64.64.64s.64-.24.64-.64v-6.88zm-8.32-1.28h-19.04l-1.52-4.48 3.28-1.04 1.28 3.76c.16.24.4.4.64.4h.16c.32-.08.48-.48.4-.8l-1.28-3.76 21.36-6.88 3.28 10zm4.4-10.08c-.08-.32-.48-.48-.8-.4l-16.32 5.2c-.32.08-.48.48-.4.8.08.24.32.4.56.4h.16l16.32-5.2c.4-.08.64-.48.48-.8zm-2.72 4 3.12-.96c.32-.08.48-.48.4-.8s-.48-.48-.8-.4l-3.12 1.04c-.32.08-.48.48-.4.8.08.24.32.4.56.4.08 0 .16 0 .24-.08zm2.56 2.88c.08.24.32.4.56.4h.16l.96-.32c.32-.08.48-.48.4-.8s-.48-.48-.8-.4l-.96.32c-.24.08-.4.48-.32.8zm-1.76-.08-.96.32c-.32.08-.48.48-.4.8.08.24.32.4.56.4h.16l1.04-.4c.32-.08.48-.48.4-.8-.08-.24-.48-.48-.8-.32zm-8.72-1.52-5.68 1.84c-.32.08-.48.48-.4.8.08.24.32.4.56.4h.16l5.68-1.84c.32-.08.48-.48.4-.8 0-.32-.4-.56-.72-.4zm-8.56 14.4c-.32 0-.64.24-.64.64v.24c0 .32.32.64.64.64s.64-.24.64-.64v-.24c0-.4-.32-.64-.64-.64zm2.96-6.08c0 .32.24.64.64.64h17.12c.32 0 .64-.24.64-.64 0-.32-.24-.64-.64-.64h-17.12c-.32.08-.64.32-.64.64zm17.76 1.76h-3.28c-.32 0-.64.24-.64.64 0 .32.24.64.64.64h3.28c.32 0 .64-.24.64-.64 0-.32-.24-.64-.64-.64zm0 4.08h-1.04c-.32 0-.64.24-.64.64 0 .32.24.64.64.64h1.04c.32 0 .64-.24.64-.64 0-.32-.24-.64-.64-.64zm-3.28 0h-1.04c-.32 0-.64.24-.64.64 0 .32.24.64.64.64h1.04c.32 0 .64-.24.64-.64 0-.32-.32-.64-.64-.64zm-7.84-4.08h-6c-.32 0-.64.24-.64.64 0 .32.24.64.64.64h6c.32 0 .64-.24.64-.64 0-.32-.32-.64-.64-.64z"/></svg>