<svg height="32" viewBox="0 0 25 32" width="25" xmlns="http://www.w3.org/2000/svg"><path d="m24.12 7.68c.24-.44.24-.96-.04-1.4-2.4-3.88-6.84-6.28-11.64-6.28-2.64 0-5.2.72-7.4 2.08-.24.12-.28.44-.16.64.12.24.44.28.64.16 2.08-1.28 4.44-1.96 6.92-1.96 4.48 0 8.64 2.24 10.84 5.84.16.24.04.6-.24.68-.96.32-2.08.56-3.12.68-.08-.64-.48-1.2-1.12-1.48-1.28-.6-4.2-1.08-6.36-1.08s-5.08.48-6.36 1.08c-.6.28-1 .84-1.12 1.48-1.04-.16-2.16-.4-3.12-.68-.28-.08-.4-.44-.24-.68.6-.96 1.36-1.84 2.24-2.64.2-.16.2-.48.04-.68-.16-.16-.48-.2-.68 0-.96.84-1.76 1.8-2.4 2.84-.28.44-.28.96-.04 1.4-.68 1.6-1.12 3.96-.36 6 .04.16.16.28.28.4.44 2.36 1.84 4.32 4.12 5.72-.04.12-.08.28-.12.4-1.8 1.6-3 3.8-3.48 6.16-.28 1.44.8 2.76 2.28 2.76h3.68v1.28c0 .88.72 1.6 1.6 1.6h7.36c.88 0 1.6-.72 1.6-1.6v-1.28h2.36c.24 0 .48-.2.48-.48 0-.24-.2-.48-.48-.48h-1.64c.88-.96 1.52-2.2 1.8-3.68.16-.88.24-1.8.2-2.68 1.16 1.36 1.96 3 2.32 4.76.12.6-.16 1.16-.68 1.48-.24.12-.32.4-.2.64s.4.32.64.2c.88-.48 1.36-1.48 1.16-2.48-.48-2.4-1.68-4.6-3.48-6.2-.04-.12-.08-.28-.12-.4 2.24-1.4 3.68-3.36 4.12-5.72.12-.12.2-.24.28-.4.76-2.04.32-4.4-.36-6zm-17.64-.2c1.12-.52 3.96-1 5.96-1 1.96 0 4.8.48 5.96 1 .48.24.72.84.48 1.32s-.84.72-1.32.48c-.72-.32-3.2-.8-5.12-.8s-4.4.48-5.12.8c-.48.24-1.08 0-1.32-.48s0-1.08.48-1.32zm-5.2 5.88c-.6-1.68-.32-3.6.24-5.04.6.2 2.16.6 3.56.76.12.32.32.6.6.8-.4.88-.8 1.52-1.16 1.84 0 0-.04 0-.08 0-.2-.24-.36-.56-.44-.8-.2-.48-.88-.52-1.12-.04-.36.76-1 1.76-1.56 2.44 0 .08-.04.08-.04.04zm2.2 14.8c-.88 0-1.52-.8-1.36-1.64.36-1.76 1.16-3.4 2.32-4.76-.04.88 0 1.8.2 2.68.32 1.48.92 2.76 1.8 3.68h-2.96zm3.68-.6c-.8-.84-1.36-1.92-1.64-3.28-.28-1.28-.28-2.8.08-4.04.48.24 1 .44 1.52.64-.16.72-.28 1.84 0 3.16.2.88.52 1.6.96 2.12-.52.28-.88.8-.92 1.4zm6.56-4h-2.56c-.8 0-1.48.64-1.48 1.48v1h-.4c-.6-.44-1-1.2-1.24-2.2-.24-1.08-.16-2.08-.04-2.68 1.4.4 2.88.6 4.4.6s3.04-.2 4.4-.6c.12.6.2 1.56-.04 2.68-.24 1-.64 1.76-1.24 2.2h-.4v-1c.08-.84-.6-1.48-1.4-1.48zm.52 1.48v1h-3.6v-1c0-.28.24-.52.52-.52h2.56c.28-.04.52.2.52.52zm-3.96 6.04h-1.52c-.36 0-.68-.32-.68-.68v-2.72c0-.36.32-.68.68-.68h1.52c-.52.52-.8 1.24-.8 2.04 0 .76.28 1.48.8 2.04zm2.16 0c-1.12 0-2.04-.92-2.04-2.04s.92-2.04 2.04-2.04 2.04.92 2.04 2.04-.92 2.04-2.04 2.04zm4.36-.68c0 .36-.32.68-.68.68h-1.52c1.08-1.16 1.08-2.92 0-4.08h1.52c.36 0 .68.32.68.68zm2.56-6.12c-.28 1.36-.84 2.48-1.64 3.28-.04-.6-.4-1.12-.96-1.4.44-.56.76-1.28.96-2.12.28-1.28.2-2.44 0-3.16.52-.2 1.04-.4 1.52-.64.36 1.24.36 2.76.12 4.04zm-6.92-3.44c-4.64 0-9.68-2.08-10.8-6.6.16-.04.32-.16.44-.32.48-.6 1-1.36 1.4-2.04.08.12.16.28.28.4.36.48 1.04.52 1.44.12.44-.4.92-1.16 1.36-2.16.4.08.8.04 1.16-.16.56-.24 2.88-.72 4.72-.72s4.16.48 4.72.72c.36.16.8.2 1.16.16.44 1 .92 1.72 1.36 2.16.44.4 1.12.32 1.44-.12.08-.12.2-.28.28-.4.4.72.88 1.48 1.4 2.04.12.16.28.24.44.32-1.12 4.52-6.16 6.6-10.8 6.6zm11.16-7.48c0 .04-.08.04-.08 0-.56-.68-1.2-1.68-1.56-2.44-.24-.48-.92-.48-1.12.04-.08.24-.24.56-.44.8 0 .04-.04.04-.08 0-.32-.32-.72-.96-1.12-1.84.24-.2.48-.48.6-.8 1.32-.16 2.92-.56 3.56-.76.56 1.36.88 3.32.24 5zm-11.16 15.2c-.24 0-.48.2-.48.48 0 .24.2.48.48.48.24 0 .48-.2.48-.48s-.24-.48-.48-.48zm1.24-15.12c-.2-.16-.48-.16-.68.04-.16.16-.36.24-.56.24s-.4-.08-.56-.24c-.16-.2-.48-.2-.68-.04s-.2.48-.04.68c.32.36.76.56 1.28.56.48 0 .96-.2 1.28-.56.16-.24.12-.52-.04-.68zm-5.08-2c-.72 0-1.32.6-1.32 1.32 0 .24.2.48.48.48.24 0 .48-.2.48-.48 0-.2.16-.4.4-.4.2 0 .4.16.4.4s.2.48.48.48c.24 0 .48-.2.48-.48-.08-.72-.68-1.32-1.4-1.32zm7.68 0c-.72 0-1.32.6-1.32 1.32 0 .24.2.48.48.48.24 0 .48-.2.48-.48 0-.2.16-.4.4-.4.2 0 .4.16.4.4s.2.48.48.48c.24 0 .48-.2.48-.48-.08-.72-.68-1.32-1.4-1.32z"/></svg>