<svg height="32" viewBox="0 0 32 32" width="32" xmlns="http://www.w3.org/2000/svg"><path d="m31.8 25.933-11.2-11.4s-.067-.067-.067-.067l-.133-.067c-.267-.2-.6-.133-.8.067l-.067.067-3.133-5.067c-.133-.2-.333-.267-.533-.267-.2 0-.4.133-.533.267l-.933 1.467-3.467-5.867c-.133-.267-.4-.4-.6-.4-.267 0-.467.2-.533.4l-6.933 18.267v.067l-2.667 2.733c-.267.267-.267.667 0 .867.267.267.667.267.867 0l.067-.067 7.667-7.8 3.467 3.533s0 0 0 0l1.867 1.933 2.2 2.267c.133.133.267.333.533.4.4.133.733-.133.8-.533 0-.2-.067-.4-.2-.533l-3.867-3.933 6.467-6.533 10.867 11.067c.267.267.733.267.933-.067.2-.2.2-.6-.067-.8zm-19.067-4.533-3.467-3.533c-.133-.133-.267-.2-.467-.2-.133 0-.333.067-.467.2l-3.333 3.4 4-10.6h1.267c.333 0 .6-.267.6-.667v-.067c0-.333-.267-.6-.6-.6h-.8l1-2.6 1.533 2.667c-.267.067-.467.267-.533.533v.067c0 .333.267.667.6.667h.6l1 1.733c.133.2.333.333.533.333s.4-.067.533-.267l1-1.467 2.8 4.467-5.8 5.933zm2.2-8.267c-.267.2-.4.6-.2.867l1.2 2c.133.2.333.333.533.333.133 0 .2 0 .333-.067.267-.2.4-.6.2-.867l-1.2-2c-.2-.333-.533-.4-.867-.267zm8.534 7.534c-.267-.267-.667-.267-.867 0-.267.267-.267.667 0 .867l4.733 4.733c.133.133.267.2.467.2.133 0 .333-.067.467-.2.267-.267.267-.667 0-.867zm-2.867-2.867c-.267-.267-.667-.267-.867 0-.267.267-.267.667 0 .867l1.4 1.4c.133.133.267.2.467.2.133 0 .333-.067.467-.2.267-.267.267-.667 0-.867zm-8.533 5.733c-.267-.267-.667-.267-.867 0-.267.267-.267.667 0 .867l2.267 2.267c.133.133.267.2.467.2.133 0 .333-.067.467-.2.267-.267.267-.667 0-.867l-2.333-2.267zm-2.334-2.266c-.267-.267-.667-.267-.867 0-.267.267-.267.667 0 .867l.8.8c.133.133.267.2.467.2.133 0 .333-.067.467-.2.267-.267.267-.667 0-.867z"/></svg>