<svg height="32" viewBox="0 0 32 32" width="32" xmlns="http://www.w3.org/2000/svg"><path d="m31.4 15h-8.2v-3.867c0-.133-.067-.267-.133-.333l-4.467-6.2c-.133-.2-.267-.267-.467-.267h-17.533c-.333 0-.6.267-.6.6v22.067c0 .4.267.667.6.667h30.733c.333 0 .6-.267.6-.6v-11.467c.067-.333-.2-.6-.533-.6zm-27 11.467h-3.133v-2.667c0-.867.733-1.533 1.6-1.533s1.6.667 1.6 1.533v2.667zm0-5.467h-3.133v-3c0-.867.733-1.533 1.6-1.533s1.6.667 1.6 1.533v3zm0-5.8h-3.133v-3c0-.867.733-1.533 1.6-1.533s1.6.667 1.6 1.533v3zm4.4 11.267h-3.133v-2.667c0-.867.733-1.533 1.6-1.533s1.6.667 1.6 1.533v2.667zm0-5.467h-3.133v-3c0-.867.733-1.533 1.6-1.533s1.6.667 1.6 1.533v3zm0-5.8h-3.133v-3c0-.867.733-1.533 1.6-1.533s1.6.667 1.6 1.533v3zm4.333 11.267h-3.133v-2.667c0-.867.733-1.533 1.6-1.533s1.6.667 1.6 1.533v2.667zm0-5.467h-3.133v-3c0-.867.733-1.533 1.6-1.533s1.6.667 1.6 1.533v3zm0-5.8h-3.133v-3c0-.867.733-1.533 1.6-1.533s1.6.667 1.6 1.533v3zm4.4 11.267h-3.133v-2.667c0-.867.733-1.533 1.6-1.533s1.6.667 1.6 1.533v2.667zm0-5.467h-3.133v-3c0-.867.733-1.533 1.6-1.533s1.6.667 1.6 1.533v3zm0-5.8h-3.133v-3c0-.867.733-1.533 1.6-1.533s1.6.667 1.6 1.533v3zm-1.533-5.667c-.6 0-1.133.2-1.6.467v-.867c0-.333-.267-.6-.6-.6s-.6.267-.6.6v.8c-.533-.267-1.067-.4-1.6-.4-.6 0-1.133.2-1.6.467v-.867c0-.333-.267-.6-.6-.6s-.6.267-.6.6v.8c-.467-.267-1-.467-1.6-.467-.533.067-1.067.2-1.533.467v-.8c0-.333-.267-.6-.6-.6s-.6.267-.6.6v.867c-.467-.333-1.067-.467-1.667-.467-.533 0-1.133.133-1.533.4v-4.4h16.533l2.867 4c-.067 0-.2 0-.267 0-.867 0-1.667.4-2.2 1-.533-.667-1.333-1-2.2-1zm5.933 16.934h-3.133v-2.667c0-.867.733-1.533 1.6-1.533s1.6.667 1.6 1.533v2.667zm0-5.467h-3.133v-3c0-.867.733-1.533 1.6-1.533s1.6.667 1.6 1.533v3zm0-5.8h-3.133v-3c0-.867.733-1.533 1.6-1.533s1.6.667 1.6 1.533v3zm4.4 11.267h-3.133v-2.667c0-.867.733-1.533 1.6-1.533s1.6.667 1.6 1.533v2.667zm0-5.467h-3.133v-3c0-.867.733-1.533 1.6-1.533s1.6.667 1.6 1.533v3zm4.4 5.467h-3.133v-2.667c0-.867.733-1.533 1.6-1.533s1.6.667 1.6 1.533v2.667zm0-5.467h-3.133v-3c0-.867.733-1.533 1.6-1.533s1.6.667 1.6 1.533v3zm-25.666-14.6c-.333 0-.667.267-.667.6v.2c0 .333.267.6.6.6s.6-.267.6-.6v-.2c.067-.333-.2-.6-.533-.6zm4.333 0c-.333 0-.6.267-.6.6v.2c0 .333.267.6.6.6s.6-.267.6-.6v-.2c0-.333-.267-.6-.6-.6zm4.333 0c-.333 0-.6.267-.6.6v.2c0 .333.267.6.6.6s.6-.267.6-.6v-.2c.067-.333-.267-.6-.6-.6z"/></svg>