<svg height="32" viewBox="0 0 32 32" width="32" xmlns="http://www.w3.org/2000/svg"><path d="m7.6 30.72h-.8l4.72-7.44c.16-.32.08-.64-.16-.88-.24-.16-.64-.08-.8.16l-5.2 8.16h-3.6c-.32 0-.56.24-.56.64 0 .32.24.64.56.64h5.84c.32 0 .56-.32.56-.64.08-.32-.24-.64-.56-.64zm4.64 0h-1.92c-.32 0-.56.24-.56.64 0 .32.24.64.56.64h1.92c.32 0 .56-.32.56-.64s-.24-.64-.56-.64zm17.04-6s0 0 0 0zm0 0s0 0 0 0zm-.32-15.28c-.96-1.92-2.24-3.68-3.84-5.12s-3.44-2.56-5.36-3.28c-1.76-.64-3.68-1.04-5.6-1.04-3.12 0-6.16.88-8.8 2.64-.32.16-.32.4-.32.72 0 1.04.16 2.16.4 3.28 0 .24.08.56.16.88.8 3.2 2.32 6.32 4.4 8.96.8 1.04 1.68 2 2.64 2.88v.08l-.8 1.2c-.16.32-.08.64.16.88.08.08.24.08.32.08.16 0 .4-.08.48-.24l.72-1.12c1.28 1.04 2.64 2 4.08 2.72 1.68.88 3.44 1.52 5.2 1.92.16 0 .32.08.48.08 1.12.16 2.16.32 3.2.32.8 0 1.52-.08 2.32-.16.16 0 .4-.16.48-.32.96-2.24 1.52-4.72 1.52-7.2 0-2.96-.64-5.68-1.84-8.16zm-6.24-5.12c.72.16 1.36.64 1.84 1.28.16.16.24.32.32.48.32.56.32 1.2.16 1.52-.16.24-.48.4-.8.4s-.64-.08-.96-.16c-.72-.24-1.36-.8-1.76-1.44-.16-.24-.32-.48-.32-.8-.08-.32-.08-.72.08-.96.24-.32.8-.48 1.44-.32zm-16.48-.8c2.4-1.44 5.12-2.24 7.84-2.24 1.76 0 3.52.32 5.2.96.72.24 1.36.56 2.08.96-.4.08-.64.32-.96.64-1.36-.4-2.88-.56-4.32-.56-2.96 0-5.76.8-8.24 2.24l-1.28.72c-.16-.88-.32-1.84-.32-2.72zm16.48 20c-1.52-.4-3.04-.96-4.56-1.68-.56-.32-1.12-.64-1.6-.96 2.32-2.88 4.32-5.92 5.76-8.48.16-.32.08-.72-.24-.88s-.64-.08-.8.24c-1.36 2.56-3.36 5.52-5.68 8.4-1.68-1.2-3.28-2.72-4.64-4.48-1.92-2.4-3.28-5.2-4.08-8.08 1.2-.96 2.48-1.68 3.84-2.24h.08c.72-.24 1.44-.48 2.16-.64h.08c1.04-.24 2.08-.32 3.2-.32 1.28 0 2.56.16 3.84.48v.32c-2.32 1.2-5.44 3.84-8.56 7.36-.24.24-.24.64 0 .88.08.08.24.16.4.16s.32-.08.4-.16c2.88-3.2 5.84-5.76 8-6.96.24.64.72 1.28 1.36 1.84.72.56 1.52.96 2.32 1.04h.24c.64 1.76.96 3.68.96 5.6-.08 2.96-.96 5.92-2.48 8.56zm5.68.32c-.8.08-1.6.08-2.4.08-.56 0-1.04-.08-1.6-.16-.16 0-.24 0-.4-.08 1.52-2.72 2.32-5.76 2.32-8.88 0-2-.32-4-.96-5.84.16-.08.24-.16.4-.32.16-.08.24-.24.32-.4.16-.24.24-.48.32-.8.56.8 1.04 1.6 1.52 2.48 1.12 2.32 1.76 4.88 1.76 7.52-.08 2.24-.48 4.4-1.28 6.4z"/></svg>
