<svg height="32" viewBox="0 0 32 32" width="32" xmlns="http://www.w3.org/2000/svg"><path d="m7.111 0c-1.422 0-2.667 1.244-2.667 2.667s1.244 2.667 2.667 2.667c1.422 0 2.667-1.244 2.667-2.667s-1.244-2.667-2.667-2.667zm8.889 0c-1.422 0-2.667 1.244-2.667 2.667s1.244 2.667 2.667 2.667c1.422 0 2.667-1.244 2.667-2.667s-1.244-2.667-2.667-2.667zm8.889 5.333c1.422 0 2.667-1.244 2.667-2.667s-1.244-2.667-2.667-2.667c-1.422 0-2.667 1.244-2.667 2.667s1.244 2.667 2.667 2.667zm-17.778 3.556c-1.422 0-2.667 1.244-2.667 2.667s1.244 2.667 2.667 2.667c1.422 0 2.667-1.244 2.667-2.667s-1.244-2.667-2.667-2.667zm8.889 0c-1.422 0-2.667 1.244-2.667 2.667s1.244 2.667 2.667 2.667c1.422 0 2.667-1.244 2.667-2.667s-1.244-2.667-2.667-2.667zm8.889 0c-1.422 0-2.667 1.244-2.667 2.667s1.244 2.667 2.667 2.667c1.422 0 2.667-1.244 2.667-2.667s-1.244-2.667-2.667-2.667zm-17.778 8.889c-1.422 0-2.667 1.244-2.667 2.667s1.244 2.667 2.667 2.667c1.422 0 2.667-1.244 2.667-2.667s-1.244-2.667-2.667-2.667zm8.889 0c-1.422 0-2.667 1.244-2.667 2.667s1.244 2.667 2.667 2.667c1.422 0 2.667-1.244 2.667-2.667s-1.244-2.667-2.667-2.667zm8.889 0c-1.422 0-2.667 1.244-2.667 2.667s1.244 2.667 2.667 2.667c1.422 0 2.667-1.244 2.667-2.667s-1.244-2.667-2.667-2.667zm-8.889 8.889c-1.422 0-2.667 1.244-2.667 2.667s1.244 2.667 2.667 2.667c1.422 0 2.667-1.244 2.667-2.667s-1.244-2.667-2.667-2.667z"/></svg>