<svg height="32" viewBox="0 0 32 32" width="32" xmlns="http://www.w3.org/2000/svg"><path d="m16 0c-6.16 0-11.2 5.04-11.2 11.2 0 6 10.24 20 10.72 20.56.08.16.32.24.48.24s.4-.08.48-.24c.48-.64 10.72-14.64 10.72-20.56 0-6.16-5.04-11.2-11.2-11.2zm0 30.32c-.88-1.28-2.8-4-4.72-7.2-3.44-5.52-5.2-9.68-5.2-11.92 0-5.52 4.4-9.92 9.92-9.92s9.92 4.48 9.92 9.92c0 2.24-1.76 6.4-5.2 11.92-1.92 3.12-3.84 5.92-4.72 7.2zm0-24.56c-3.04 0-5.44 2.48-5.44 5.44 0 3.04 2.48 5.44 5.44 5.44 3.04 0 5.44-2.48 5.44-5.44 0-3.04-2.4-5.44-5.44-5.44zm0 9.6c-2.32 0-4.24-1.92-4.24-4.16 0-2.32 1.92-4.16 4.24-4.16s4.24 1.92 4.24 4.16c0 2.32-1.92 4.16-4.24 4.16zm-7.44-4.16c0-4.08 3.36-7.44 7.44-7.44.32 0 .64-.32.64-.64s-.32-.64-.64-.64c-4.8 0-8.64 3.92-8.64 8.72 0 .48.08 1.12.24 1.76.08.24.32.48.64.48h.16c.32-.08.56-.4.48-.8-.24-.56-.32-1.04-.32-1.44zm1.52 4.64c-.16-.32-.56-.48-.8-.32-.32.16-.48.48-.32.8.32.56.64 1.28.96 1.92.08.24.32.32.56.32.08 0 .16 0 .32-.08.32-.16.4-.56.24-.88-.4-.48-.72-1.12-.96-1.76zm2.48 4.64c-.16-.32-.56-.4-.88-.24s-.4.56-.24.88c2 3.36 4 6.16 4 6.16.16.16.32.24.48.24s.24 0 .4-.08c.32-.16.32-.56.16-.88 0 0-1.92-2.8-3.92-6.08z"/></svg>