<svg height="32" viewBox="0 0 32 32" width="32" xmlns="http://www.w3.org/2000/svg"><path d="m24.659 27.765c-2.259 0-4.235-.941-5.835-2.729s-2.447-4.329-2.447-7.624c0-4.141 1.129-7.435 3.2-9.694 2.165-2.259 5.271-3.482 9.129-3.482 1.035 0 1.976.094 2.729.188l.471.094v5.365l-.659-.094c-1.129-.188-1.976-.188-2.635-.188-1.882 0-3.294.565-4.329 1.694-.753.753-1.224 1.506-1.506 2.447.659-.282 1.412-.471 2.353-.471 1.976 0 3.671.659 4.988 2.071s1.976 3.106 1.976 5.176c0 2.071-.659 3.859-2.071 5.176-1.412 1.412-3.2 2.071-5.365 2.071zm4.047-22.306c-3.576 0-6.306 1.035-8.282 3.106-1.882 2.071-2.918 5.082-2.918 8.847 0 3.012.659 5.271 2.071 6.776s3.012 2.259 4.988 2.259c1.788 0 3.294-.565 4.424-1.694 1.129-1.129 1.694-2.541 1.694-4.329s-.565-3.2-1.6-4.329-2.447-1.694-4.047-1.694c-1.318 0-2.165.376-2.824 1.035l-1.224 1.506.188-1.976c.188-1.788.847-3.388 2.071-4.612 1.224-1.412 3.012-2.165 5.271-2.165.565 0 1.318.094 2.165.188v-2.824c-.565-.094-1.224-.094-1.976-.094zm-20.424 22.306c-2.259 0-4.235-.941-5.835-2.729-1.6-1.694-2.447-4.329-2.447-7.529 0-4.141 1.129-7.435 3.2-9.788 2.165-2.259 5.271-3.482 9.129-3.482 1.035 0 1.976.094 2.729.188l.471.094v5.365l-.659-.094c-1.129-.188-1.976-.188-2.635-.188-1.882 0-3.294.565-4.329 1.694-.753.753-1.224 1.506-1.506 2.447.659-.282 1.412-.471 2.353-.471 1.976 0 3.671.659 4.988 2.071s1.976 3.106 1.976 5.176c0 2.071-.659 3.859-2.071 5.176-1.506 1.412-3.2 2.071-5.365 2.071zm4.047-22.306c-3.576 0-6.306 1.035-8.282 3.106-1.882 2.071-2.918 5.082-2.918 8.847 0 3.012.659 5.271 2.071 6.776s3.012 2.259 4.988 2.259c1.788 0 3.294-.565 4.424-1.694 1.129-1.129 1.694-2.541 1.694-4.329s-.565-3.2-1.6-4.329-2.447-1.694-4.047-1.694c-1.318 0-2.165.376-2.824 1.035l-1.129 1.6.188-1.976c.188-1.788.847-3.388 2.071-4.612 1.224-1.412 3.012-2.165 5.271-2.165.565 0 1.318.094 2.165.188v-2.918c-.659-.094-1.318-.094-2.071-.094z"/></svg>