<svg height="32" viewBox="0 0 32 32" width="32" xmlns="http://www.w3.org/2000/svg"><path d="m27.84 2.4h-23.68c-2.32 0-4.16 1.84-4.16 4.08v18.96c0 2.32 1.84 4.16 4.16 4.16h23.68c2.32 0 4.16-1.84 4.16-4.08v-19.04c0-2.24-1.84-4.08-4.16-4.08zm2.88 23.12c0 1.6-1.28 2.88-2.88 2.88h-23.68c-1.6 0-2.88-1.28-2.88-2.88v-19.04c0-1.6 1.28-2.88 2.88-2.88h23.68c1.6 0 2.88 1.28 2.88 2.88zm-27.84-19.2c-.32 0-.64.24-.64.64v3.44c0 .32.24.64.64.64.32 0 .64-.24.64-.64v-3.44c0-.4-.24-.64-.64-.64zm0 6.08c-.32 0-.64.24-.64.64v11.92c0 .32.24.64.64.64.32 0 .64-.24.64-.64v-11.92c0-.32-.24-.64-.64-.64zm6.4-7.12c0-.32-.24-.64-.64-.64h-4.08c-.32 0-.64.24-.64.64 0 .32.24.64.64.64h4.16c.32 0 .56-.32.56-.64zm13.36 6.72h-2.64v-2.56c0-.8-.64-1.44-1.44-1.44h-5.04c-.8 0-1.44.64-1.44 1.44v2.56h-2.64c-.8 0-1.44.64-1.44 1.44v5.04c0 .8.64 1.44 1.44 1.44h2.56v2.64c0 .8.64 1.44 1.44 1.44h5.04c.8 0 1.44-.64 1.44-1.44v-2.56h2.64c.8 0 1.44-.64 1.44-1.44v-5.04c.08-.8-.56-1.52-1.36-1.52zm.24 6.48c0 .08-.08.24-.24.24h-3.28c-.32 0-.64.24-.64.64v3.28c0 .08-.08.24-.24.24h-5.04c-.08 0-.24-.08-.24-.24v-3.28c0-.32-.24-.64-.64-.64h-3.28c-.08 0-.24-.08-.24-.24v-5.04c0-.08.08-.24.24-.24h3.28c.32 0 .64-.24.64-.64v-3.12c0-.08.08-.24.24-.24h5.04c.08 0 .24.08.24.24v3.28c0 .32.24.64.64.64h3.28c.08 0 .24.08.24.24z"/></svg>