<svg height="32" viewBox="0 0 32 32" width="32" xmlns="http://www.w3.org/2000/svg"><path d="m31.92 20-.16-.52c-.32-.96-1.2-1.56-2.2-1.56h-2.48c-.44-1.56-1.04-3.12-1.68-4.52 2.04-.68 3.2-2.88 2.6-4.96-.64-2.08-2.76-3.24-4.8-2.72-.92-3.2-3.64-5.12-7.2-5.12-1.56 0-2.96.36-4.12 1.08-.24.12-.28.44-.16.64.12.24.4.28.64.16 1.04-.6 2.28-.92 3.64-.92 1.64 0 3.08.44 4.2 1.32 1 .76 1.68 1.8 2.04 3.08-.6.16-1.2.28-1.84.4-.56-1.88-2.12-2.92-4.4-2.92s-3.84 1.04-4.44 2.92c-.64-.12-1.24-.24-1.84-.4.24-.8.6-1.52 1.08-2.12.16-.2.12-.48-.08-.68-.2-.16-.48-.12-.64.08-.56.72-.96 1.52-1.24 2.44-2.04-.52-4.16.68-4.8 2.72-.64 2.08.52 4.28 2.6 4.96-.64 1.4-1.24 2.96-1.68 4.52h-2.52c-1 0-1.88.64-2.2 1.56l-.16.52c-.28.88.24 1.76 1.04 2v2.28c0 1.32 1.04 2.36 2.36 2.36h.64c.6 3.12 2.56 4.76 5.6 4.76h12.52c3.08 0 5-1.64 5.6-4.76h.64c1.28 0 2.36-1.04 2.36-2.36v-2.28c.84-.2 1.36-1.08 1.08-1.96zm-15.92-15.64c1.76 0 3 .76 3.48 2.12-2.2.28-4.68.32-7 0 .52-1.36 1.76-2.12 3.52-2.12zm-11.08 4.32c.48-1.6 2.2-2.52 3.8-2.04 4.4 1.32 10.04 1.36 14.52 0 1.6-.48 3.32.44 3.8 2.04s-.44 3.32-2.04 3.8c-2.24.68-4.64 1.08-7.16 1.2v-.72c0-.72-.56-1.28-1.28-1.28h-1.24c-.68 0-1.28.56-1.28 1.28v.72c-2.52-.12-4.92-.56-7.16-1.2-1.52-.48-2.44-2.2-1.96-3.8zm12.72 7.92c.2 0 .32.16.32.32v1.52c0 .2-.16.32-.32.32h-3.24c-.2 0-.32-.16-.32-.32v-1.52c0-.2.16-.32.32-.32zm-2.6-.92v-2.68c0-.2.16-.32.32-.32h1.24c.2 0 .32.16.32.32v2.68zm-11.04 10h-.52c-.8 0-1.4-.64-1.4-1.44v-2.2h2c-.2 1.44-.2 2.64-.08 3.64zm.2-4.56h-2.64c-.44 0-.72-.4-.6-.84l.16-.52c.2-.56.72-.92 1.32-.92h2.24c-.2.76-.36 1.52-.48 2.28zm21.84 7.64c-.72-.36-1.6-.68-2.6-.96-.24-.08-.52.08-.56.36-.08.24.08.52.32.56.84.2 1.56.48 2.16.76-.8.68-1.84 1-3.12 1h-12.48c-1.28 0-2.32-.32-3.12-1 2-.96 5.32-1.52 9.36-1.52 1.84 0 3.56.12 5.04.32.24.04.48-.16.52-.4s-.16-.48-.4-.52c-1.56-.24-3.28-.32-5.2-.32-4.36 0-7.92.6-10.04 1.72-1.4-1.92-1.24-5.12-.84-7.48.4-2.48 1.32-5.32 2.4-7.64 2.08.56 4.28.92 6.6 1.04v1.04c-.56.12-1 .64-1 1.24v1.52c0 .72.56 1.28 1.28 1.28h3.24c.72 0 1.28-.56 1.28-1.28v-1.52c0-.6-.44-1.12-1-1.24v-1.04c2.32-.12 4.52-.48 6.6-1.04 1.12 2.32 2 5.16 2.4 7.64.4 2.36.56 5.52-.84 7.48zm3.88-4.48c0 .8-.64 1.44-1.4 1.44h-.52c.12-1 .08-2.2-.08-3.64h2zm.52-3.16h-2.64c-.12-.72-.28-1.52-.48-2.28h2.24c.6 0 1.12.36 1.32.92l.16.52c.12.4-.16.84-.6.84zm-10.32-.16c-.24 0-.48.2-.48.48v.76c0 .24.2.48.48.48.24 0 .48-.2.48-.48v-.76c-.04-.28-.24-.48-.48-.48zm-7.88-.2c-.76 0-1.36.6-1.36 1.36 0 .24.2.48.48.48.24 0 .48-.2.48-.48 0-.24.2-.4.4-.4.24 0 .4.2.4.4 0 .24.2.48.48.48.24 0 .48-.2.48-.48 0-.76-.6-1.36-1.36-1.36zm5.28 1c-.4-.2-.92-.24-1.52-.24-.64 0-1.12.04-1.52.24-.52.28-.8.76-.8 1.48 0 1.4 1 2.56 2.36 2.56 1.28 0 2.36-1.12 2.32-2.56 0-.72-.28-1.24-.84-1.48zm-1.52 3.12c-.8 0-1.4-.76-1.4-1.64 0-.44.12-.56.28-.64.24-.12.68-.16 1.12-.16.44 0 .84 0 1.12.16.16.08.28.2.28.64 0 .88-.6 1.64-1.4 1.64z"/></svg>